<svg xmlns="http://www.w3.org/2000/svg" width="80" height="50"><defs><style>.cls-2{fill:#212126}</style></defs><g id="climate-change" transform="translate(-.719 -1)"><g id="Сгруппировать_1019" transform="translate(15)"><path id="Контур_1239" d="M7.452 13.9a6.437 6.437 0 005.792-9.275 4.754 4.754 0 018.562 1.881 5.2 5.2 0 00-.447.276 6.335 6.335 0 00-3.285-.946h-.138v1.616h.138a4.725 4.725 0 012.081.5c-.067.088-.138.17-.2.263l-.271.406 1.342.894.274-.415a3.711 3.711 0 013.091-1.653 1.613 1.613 0 110 3.226h-5.649a1.615 1.615 0 01-1.613-1.613h-1.613a3.229 3.229 0 003.226 3.226H38.9a3.226 3.226 0 100-6.452 5.319 5.319 0 00-1.119.127 7.141 7.141 0 00-13.362-.631l-.223.521a5.371 5.371 0 00-.847.1 6.369 6.369 0 00-11.04-2.731A6.448 6.448 0 107.452 13.9zM30.986 2.613a5.519 5.519 0 015.275 3.933 5.26 5.26 0 00-.386.238 6.344 6.344 0 00-3.285-.945h-.138v1.613h.138a4.727 4.727 0 012.081.5c-.067.088-.138.17-.2.263l-.271.406 1.342.894.271-.406A3.711 3.711 0 0138.9 7.452a1.613 1.613 0 110 3.226H27.165a3.179 3.179 0 00-1.356-4.494l.094-.218a5.526 5.526 0 015.083-3.353zm-23.535 0a4.839 4.839 0 11-4.838 4.839 4.844 4.844 0 014.839-4.839z" class="cls-2" transform="translate(-.055)"/><path id="Контур_1240" d="M46.107 32.662v-3.629l3.226-2.419V24.6H47.72v1.21l-1.613 1.21v-4.036h-1.613v5.646l-1.613-1.21v-1.21h-1.613v2.016l3.226 2.419v2.016h-8.065V27.42L39.655 25v-2.016h-1.613v1.21L36.429 25.4v-3.7l1.377-1.377-1.14-1.14-1.849 1.849v5.979L33.2 25.807V24.6h-1.609v2.016l3.226 2.419v3.629H23.526V31.63l.4-.133a6.491 6.491 0 002.538-10.747l-3.744-3.745-3.085 3.085a6.5 6.5 0 00-1.235-1.76l-3.744-3.744-3.745 3.744a6.491 6.491 0 002.537 10.747l.4.133v3.452H.719l.4 1.58a25.6 25.6 0 0049.663 0l.4-1.58zm-22.068 5.047l.923 1.385a1.05 1.05 0 01-.874 1.633H11.674a1.051 1.051 0 01-.874-1.634l.924-1.385a3.041 3.041 0 00-.037-3.432h12.388a3.042 3.042 0 00-.036 3.434zM22.72 19.286l2.6 2.6a4.871 4.871 0 01-1.8 8.031v-.956l2.183-2.183-1.14-1.14-1.043 1.042v-1.749l1.38-1.376-1.14-1.14-1.849 1.849v5.656a4.87 4.87 0 01-1.8-8.03zm-12.1 3.634a4.847 4.847 0 011.428-3.449l2.6-2.6 2.6 2.6a4.864 4.864 0 011.169 1.912 6.431 6.431 0 00-1.353 3.956 6.533 6.533 0 00.1 1.1 4.868 4.868 0 01-1.702 1.061v-5.078l1.477-2.216-1.339-.894-1.067 1.6-.918-.918-1.14 1.14 1.377 1.377v1.752l-1.043-1.043-1.14 1.14 2.183 2.183v.957a4.864 4.864 0 01-3.226-4.581zm4.839 6.291l.4-.133A6.485 6.485 0 0017.7 28.1a6.47 6.47 0 003.811 3.4l.4.133v1.032h-6.449zm-5.976 5.064l.718.718a1.444 1.444 0 01.181 1.821L9.458 38.2a2.663 2.663 0 002.216 4.141h12.415A2.663 2.663 0 0026.3 38.2l-.923-1.384a1.446 1.446 0 01.181-1.823l.718-.718h5.513a2.616 2.616 0 001.781 3.545l3.4.851a1.406 1.406 0 01.181 2.67L32.1 43.365a3.371 3.371 0 00-.421 6.058l2.19 1.251a24 24 0 01-7.691 1.333l-4.1-2.735a.359.359 0 01.141-.654l2.77-.461a2.117 2.117 0 00-.349-4.2H8.019a23.917 23.917 0 01-5.231-9.677zm11.7 16.34l1.8 1.2a23.917 23.917 0 01-13.399-6.25h15.052a.5.5 0 01.083 1l-2.769.461a1.974 1.974 0 00-.771 3.589zm14.6-.706l-3.3-1.886a1.759 1.759 0 01.22-3.16l5.06-2.025a3.019 3.019 0 00-.389-5.731l-3.4-.851a1.005 1.005 0 01.243-1.981H49.1a23.936 23.936 0 01-13.322 15.634z" class="cls-2" transform="translate(0 -2.629)"/><path id="Контур_1241" d="M37 17h1.613v1.613H37z" class="cls-2" transform="translate(-7.021 -3.097)"/><path id="Контур_1242" d="M39 21h1.613v1.613H39z" class="cls-2" transform="translate(-7.41 -3.871)"/><path id="Контур_1243" d="M43 17h1.613v1.613H43z" class="cls-2" transform="translate(-8.184 -3.097)"/><path id="Контур_1244" d="M47 19h1.613v1.613H47z" class="cls-2" transform="translate(-8.957 -3.484)"/><path id="Контур_1245" d="M51 23h1.613v1.613H51z" class="cls-2" transform="translate(-9.732 -4.258)"/><path id="Контур_1246" d="M51 17h1.613v1.613H51z" class="cls-2" transform="translate(-9.732 -3.097)"/></g></g></svg>