<svg xmlns="http://www.w3.org/2000/svg" width="80" height="50"><defs><style>.cls-2{fill:#212126}</style></defs><g id="hospital" transform="translate(0 -76.882)"><g id="Lines_15_" transform="translate(4.001 76.882)"><path id="Контур_1230" d="M83.356 349.091h19.519v-6.215H83.356zm2.094-4.121h15.331V347H85.45z" class="cls-2" transform="translate(-71.719 -305.742)"/><path id="Контур_1231" d="M83.356 285.322h19.519v-6.215H83.356zm2.094-4.122h15.331v2.027H85.45z" class="cls-2" transform="translate(-71.719 -250.876)"/><path id="Контур_1232" d="M319.263 285.322h9.1v-6.215h-9.1zm2.094-4.121h4.908v2.027h-4.908z" class="cls-2" transform="translate(-274.693 -250.876)"/><path id="Контур_1233" d="M83.356 218.245h19.519v-6.215H83.356zm2.094-4.121h15.331v2.027H85.45z" class="cls-2" transform="translate(-71.719 -193.163)"/><path id="Контур_1234" d="M87.119 124.765v-18.876h-2.094v18.876h-8.507v-10.75h-9.1v10.749h-8.503v-29.97h6.464a7.437 7.437 0 0013.182 0h6.464v4.814h2.095v-4.814h3.3v-6.5H78.744a7.432 7.432 0 00-13.548 0h-6.281v-3.7l2.451-.725v-6.987L26.56 87.53v6.632l3.022-.894v31.5h-2.533v2.094H94.3v-2.094zm-7.776-34.381h8.985V92.7h-9.045a7.475 7.475 0 00.06-2.316zm-7.373-4.375a5.341 5.341 0 11-5.29 4.606 5.4 5.4 0 015.29-4.606zm-13 4.375h5.63a7.483 7.483 0 00.06 2.316h-5.692zm-30.314-1.3l30.618-9.367V82.3l-.357.106-30.263 8.953v-2.28zm3.022 35.685V92.671l25.145-7.462v39.556zm37.84 0v-8.655h4.908v8.655z" class="cls-2" transform="translate(-22.852 -76.882)"/><path id="Контур_1235" d="M445.357 254.667h2.094v2.094h-2.094z" class="cls-2" transform="translate(-383.184 -229.848)"/><path id="Контур_1236" d="M330.7 164.305h2.094v-2.094h2.094v-2.094h-2.094v-2.094H330.7v2.094h-2.1v2.094h2.1z" class="cls-2" transform="translate(-282.731 -146.695)"/><path id="Контур_1237" d="M0 419.876h2.094v2.094H0z" class="cls-2" transform="translate(0 -371.993)"/><path id="Контур_1238" d="M147.578 181.841l2.094.016-.016 2.094-2.094-.016zm4.188.032l2.094.016-.016 2.094-2.094-.016zm4.188.032l2.094.016-.016 2.094-2.094-.015z" class="cls-2" transform="translate(-126.963 -167.188)"/></g></g></svg>