<svg xmlns="http://www.w3.org/2000/svg" width="80" height="55" viewBox="0 0 80 55">
    <g fill="#212126">
        <path d="M36.86 15.318a9.067 9.067 0 0 0-5.76 2.046L17.393 7.607v-.47a6.147 6.147 0 1 0-6.147 6.136h.369l3.463 6.893a4.087 4.087 0 0 0 0 6.668l-3.668 5.3a.98.98 0 0 0 0 .286 7.368 7.368 0 0 0-3.238-.736 7.159 7.159 0 1 0 7.172 7.159 8.862 8.862 0 0 0-.123-1.289l15.84-5.87a9.191 9.191 0 1 0 5.8-16.364zM7.147 7.136a4.1 4.1 0 1 1 4.1 4.091 4.095 4.095 0 0 1-4.1-4.091zm6.537 5.625A6.142 6.142 0 0 0 16.8 9.734l12.889 9.143a9.36 9.36 0 0 0-1.865 4.377l-6.783-1.7a4.1 4.1 0 0 0-3.648-2.148h-.369zm1.66 10.739a2.049 2.049 0 1 1 2.049 2.045 2.047 2.047 0 0 1-2.049-2.045zM8.172 43.955a5.114 5.114 0 1 1 5.123-5.114 5.118 5.118 0 0 1-5.123 5.114zm4.713-10.473a1.188 1.188 0 0 0 .246-.2l3.811-5.686h.451a4.1 4.1 0 0 0 4.1-3.8l6.147 1.555a9.174 9.174 0 0 0 1.783 4.684l-14.959 5.6a7.364 7.364 0 0 0-1.578-2.148zm23.975-1.8a7.159 7.159 0 1 1 7.172-7.159 7.166 7.166 0 0 1-7.172 7.159z" transform="translate(-330 -2042) translate(347 2046)"/>
    </g>
</svg>
