<svg xmlns="http://www.w3.org/2000/svg" width="80" height="55" viewBox="0 0 80 55">
    <defs>
        <style>
            .cls-2{fill:#212126}
        </style>
    </defs>
    <g id="sun" transform="translate(-1116 -2042)">
        <g id="Сгруппировать_1344" transform="translate(-79 141.999)">
            <path id="Контур_1673" d="M29.469 14a15.469 15.469 0 1 0 15.469 15.469A15.469 15.469 0 0 0 29.469 14zm0 29.219a13.75 13.75 0 1 1 13.75-13.75 13.75 13.75 0 0 1-13.75 13.75z" class="cls-2" transform="translate(1206.031 1898.031)"/>
            <path id="Контур_1674" d="M25.622 10.279a.861.861 0 0 0 1.063-.587A13.947 13.947 0 0 1 32.8 2.208c.162 2.026.735 5.822 2.767 7.854a.859.859 0 0 0 1.213-1.216C34.486 6.552 34.453.916 34.453.859a.86.86 0 0 0-1.2-.789 15.253 15.253 0 0 0-8.222 9.147.859.859 0 0 0 .589 1.061z" class="cls-2" transform="translate(1204.485 1900)"/>
            <path id="Контур_1675" d="M12.517 20.223a.86.86 0 0 0 .752-1.275 13.948 13.948 0 0 1-.969-9.614c1.547 1.318 4.636 3.6 7.51 3.6a.859.859 0 0 0 0-1.719c-3.244 0-7.252-3.962-7.293-4a.859.859 0 0 0-1.4.289 15.254 15.254 0 0 0 .654 12.283.858.858 0 0 0 .751.441z" class="cls-2" transform="translate(1206.576 1899.022)"/>
            <path id="Контур_1676" d="M9.453 37.031a.859.859 0 0 0 .237-1.685 13.947 13.947 0 0 1-7.484-6.113c2.026-.162 5.822-.735 7.854-2.767a.859.859 0 1 0-1.215-1.215C6.552 27.545.915 27.578.859 27.578a.86.86 0 0 0-.789 1.2A15.253 15.253 0 0 0 9.217 37a.855.855 0 0 0 .236.031z" class="cls-2" transform="translate(1208 1896.485)"/>
            <path id="Контур_1677" d="M20.115 49.343a.86.86 0 0 0-1.167-.337 13.935 13.935 0 0 1-9.614.969c1.318-1.547 3.6-4.636 3.6-7.51a.859.859 0 0 0-1.719 0c0 3.244-3.962 7.252-4 7.293a.859.859 0 0 0 .289 1.4 14.13 14.13 0 0 0 5.282 1.01 15.562 15.562 0 0 0 7-1.663.858.858 0 0 0 .336-1.168z" class="cls-2" transform="translate(1207.021 1894.15)"/>
            <path id="Контур_1678" d="M36.41 52.034a.859.859 0 0 0-1.063.587 13.947 13.947 0 0 1-6.113 7.484c-.162-2.026-.735-5.822-2.767-7.854a.859.859 0 0 0-1.215 1.215c2.294 2.294 2.326 7.93 2.326 7.987a.859.859 0 0 0 1.2.789A15.253 15.253 0 0 0 37 53.1a.859.859 0 0 0-.59-1.066z" class="cls-2" transform="translate(1204.485 1892.688)"/>
            <path id="Контур_1679" d="M49.343 41.715a.859.859 0 0 0-.337 1.167 13.948 13.948 0 0 1 .969 9.614c-1.547-1.318-4.636-3.6-7.51-3.6a.859.859 0 0 0 0 1.719c3.244 0 7.252 3.962 7.293 4a.859.859 0 0 0 1.4-.289 15.254 15.254 0 0 0-.654-12.283.858.858 0 0 0-1.167-.334z" class="cls-2" transform="translate(1202.149 1894.149)"/>
            <path id="Контур_1680" d="M62.243 33.255a15.253 15.253 0 0 0-9.143-8.222.859.859 0 0 0-.474 1.652 13.947 13.947 0 0 1 7.48 6.115c-2.026.162-5.822.735-7.854 2.767a.859.859 0 1 0 1.215 1.215c2.294-2.294 7.93-2.326 7.987-2.326a.86.86 0 0 0 .789-1.2z" class="cls-2" transform="translate(1200.688 1896.485)"/>
            <path id="Контур_1681" d="M41.715 12.932a.859.859 0 0 0 1.167.337A13.953 13.953 0 0 1 52.5 12.3c-1.318 1.547-3.6 4.636-3.6 7.51a.859.859 0 1 0 1.719 0c0-3.244 3.962-7.252 4-7.293a.859.859 0 0 0-.289-1.4 15.249 15.249 0 0 0-12.283.654.858.858 0 0 0-.334 1.167z" class="cls-2" transform="translate(1202.149 1898.577)"/>
            <path id="Контур_1682" d="M20.809 8.681a.859.859 0 1 0 1.537-.769l-1.718-3.437a.859.859 0 1 0-1.537.769z" class="cls-2" transform="translate(1205.328 1899.438)"/>
            <path id="Контур_1683" d="M4.01 22.068l3.646 1.215a.859.859 0 1 0 .544-1.63l-3.646-1.215a.859.859 0 1 0-.544 1.631z" class="cls-2" transform="translate(1207.519 1897.132)"/>
            <path id="Контур_1684" d="M9.066 41.475a.858.858 0 0 0-1.153-.384l-3.438 1.718a.859.859 0 1 0 .769 1.537l3.438-1.719a.859.859 0 0 0 .384-1.153z" class="cls-2" transform="translate(1207.438 1894.235)"/>
            <path id="Контур_1685" d="M22.74 54.378a.858.858 0 0 0-1.087.543l-1.215 3.646a.859.859 0 1 0 1.631.544l1.215-3.646a.86.86 0 0 0-.544-1.087z" class="cls-2" transform="translate(1205.132 1892.36)"/>
            <path id="Контур_1686" d="M42.628 54.475a.859.859 0 1 0-1.537.769l1.719 3.438a.859.859 0 0 0 1.537-.769z" class="cls-2" transform="translate(1202.235 1892.407)"/>
            <path id="Контур_1687" d="M59.112 41.452l-3.646-1.215a.859.859 0 1 0-.544 1.631l3.646 1.215a.859.859 0 1 0 .544-1.631z" class="cls-2" transform="translate(1200.36 1894.348)"/>
            <path id="Контур_1688" d="M54.091 21.963a.86.86 0 0 0 1.153.384l3.438-1.719a.859.859 0 0 0-.769-1.537l-3.438 1.719a.859.859 0 0 0-.384 1.153z" class="cls-2" transform="translate(1200.407 1897.328)"/>
            <path id="Контур_1689" d="M40.78 8.744a.858.858 0 0 0 1.087-.544l1.215-3.646a.859.859 0 1 0-1.631-.544l-1.215 3.646a.86.86 0 0 0 .543 1.087z" class="cls-2" transform="translate(1202.348 1899.519)"/>
            <path id="Контур_1690" d="M30.628 11.688l.95-1.9.95 1.9a.859.859 0 1 0 1.537-.769l-1.718-3.438a.895.895 0 0 0-1.537 0l-1.719 3.438a.859.859 0 1 0 1.537.769z" class="cls-2" transform="translate(1203.922 1899.01)"/>
            <path id="Контур_1691" d="M19.35 16.376a.859.859 0 0 0-.543-1.087l-3.646-1.216a.86.86 0 0 0-1.087 1.087l1.216 3.646a.859.859 0 1 0 1.631-.544l-.672-2.015 2.015.672a.857.857 0 0 0 1.087-.543z" class="cls-2" transform="translate(1206.027 1898.027)"/>
            <path id="Контур_1692" d="M12.066 29.475a.859.859 0 0 0-1.153-.384l-3.438 1.718a.86.86 0 0 0 0 1.537l3.438 1.719a.859.859 0 0 0 .769-1.537l-1.9-.95 1.9-.95a.859.859 0 0 0 .384-1.153z" class="cls-2" transform="translate(1207.016 1895.922)"/>
            <path id="Контур_1693" d="M16.376 43.772a.859.859 0 0 0-1.087.543l-1.216 3.646a.86.86 0 0 0 1.087 1.087l3.646-1.216a.859.859 0 1 0-.544-1.631l-2.015.672.672-2.015a.859.859 0 0 0-.543-1.086z" class="cls-2" transform="translate(1206.027 1893.851)"/>
            <path id="Контур_1694" d="M32.528 51.475l-.95 1.9-.95-1.9a.859.859 0 1 0-1.537.769l1.719 3.438a.86.86 0 0 0 1.537 0l1.719-3.438a.859.859 0 1 0-1.537-.769z" class="cls-2" transform="translate(1203.922 1892.829)"/>
            <path id="Контур_1695" d="M43.772 46.746a.859.859 0 0 0 .543 1.087l3.646 1.216a.86.86 0 0 0 1.087-1.087l-1.216-3.646a.859.859 0 0 0-1.631.544l.672 2.015-2.014-.675a.859.859 0 0 0-1.087.543z" class="cls-2" transform="translate(1201.851 1893.851)"/>
            <path id="Контур_1696" d="M51.091 33.681a.86.86 0 0 0 1.153.384l3.438-1.719a.86.86 0 0 0 0-1.537l-3.438-1.719a.859.859 0 1 0-.769 1.537l1.9.95-1.9.95a.859.859 0 0 0-.384 1.154z" class="cls-2" transform="translate(1200.829 1895.922)"/>
            <path id="Контур_1697" d="M46.746 19.35a.858.858 0 0 0 1.087-.543l1.216-3.646a.86.86 0 0 0-1.087-1.087l-3.646 1.216a.859.859 0 1 0 .544 1.631l2.015-.672-.675 2.014a.859.859 0 0 0 .543 1.087z" class="cls-2" transform="translate(1201.851 1898.027)"/>
        </g>
    </g>
</svg>
