<svg xmlns="http://www.w3.org/2000/svg" width="80" height="50" viewBox="0 0 80 50">
    <defs>
        <style>
            .cls-2{fill:#212126}
        </style>
    </defs>
    <g id="swimming-pool" transform="translate(-1 -1)">
        <g id="Сгруппировать_1018" transform="translate(15)">
            <path id="Контур_1227" d="M46.828 53.613a2.257 2.257 0 0 1-1.594-.638 3.9 3.9 0 0 0-5.157 0 2.3 2.3 0 0 1-3.18 0 3.893 3.893 0 0 0-5.154 0 2.3 2.3 0 0 1-3.18 0 3.893 3.893 0 0 0-5.154 0 2.3 2.3 0 0 1-3.179 0 3.891 3.891 0 0 0-5.153 0 2.3 2.3 0 0 1-3.176 0 3.888 3.888 0 0 0-5.152 0 2.3 2.3 0 0 1-3.176 0A3.794 3.794 0 0 0 1 52v1.613a2.242 2.242 0 0 1 1.587.637 3.794 3.794 0 0 0 2.574.976 3.8 3.8 0 0 0 2.576-.975 2.3 2.3 0 0 1 3.177 0 3.888 3.888 0 0 0 5.15 0 2.3 2.3 0 0 1 3.179 0 3.892 3.892 0 0 0 5.153 0 2.3 2.3 0 0 1 3.18 0 3.893 3.893 0 0 0 5.154 0 2.3 2.3 0 0 1 3.18 0 3.893 3.893 0 0 0 5.154 0 2.306 2.306 0 0 1 3.185 0 3.9 3.9 0 0 0 5.157 0A2.257 2.257 0 0 1 51 53.613V52a3.8 3.8 0 0 0-2.579.975 2.257 2.257 0 0 1-1.593.638z" class="cls-2" transform="translate(0 -9.871)"/>
            <path id="Контур_1228" d="M46.828 60.613a2.257 2.257 0 0 1-1.594-.638 3.9 3.9 0 0 0-5.157 0 2.3 2.3 0 0 1-3.18 0 3.893 3.893 0 0 0-5.154 0 2.3 2.3 0 0 1-3.18 0 3.893 3.893 0 0 0-5.154 0 2.3 2.3 0 0 1-3.179 0 3.891 3.891 0 0 0-5.153 0 2.3 2.3 0 0 1-3.176 0 3.888 3.888 0 0 0-5.152 0 2.3 2.3 0 0 1-3.176 0A3.794 3.794 0 0 0 1 59v1.613a2.242 2.242 0 0 1 1.587.637 3.794 3.794 0 0 0 2.574.976 3.8 3.8 0 0 0 2.576-.975 2.3 2.3 0 0 1 3.177 0 3.888 3.888 0 0 0 5.15 0 2.3 2.3 0 0 1 3.179 0 3.892 3.892 0 0 0 5.153 0 2.3 2.3 0 0 1 3.18 0 3.893 3.893 0 0 0 5.154 0 2.3 2.3 0 0 1 3.18 0 3.893 3.893 0 0 0 5.154 0 2.306 2.306 0 0 1 3.185 0 3.9 3.9 0 0 0 5.157 0A2.257 2.257 0 0 1 51 60.613V59a3.8 3.8 0 0 0-2.579.975 2.257 2.257 0 0 1-1.593.638z" class="cls-2" transform="translate(0 -11.226)"/>
            <path id="Контур_1229" d="M46.161 17.935V14.71H51v-2.794L40.516 3.045V1H38.9v2.045l-10.481 8.871v2.794h4.839v3.226h4.032v11.29h-4.838v-4.839a2.419 2.419 0 0 0-4.839 0v4.839h-4.839v-4.839a2.419 2.419 0 1 0-4.839 0v4.839H14.71V17.935h4.032V14.71h4.839v-2.794L13.1 3.045V1h-1.616v2.045L1 11.916v2.794h4.839v3.226h4.032v11.29H1v4.839h20.161V38a2.854 2.854 0 0 1-.93-.539 3.892 3.892 0 0 0-5.154 0 2.3 2.3 0 0 1-3.176 0 3.888 3.888 0 0 0-5.152 0 2.3 2.3 0 0 1-3.176 0A3.794 3.794 0 0 0 1 36.484V38.1a2.242 2.242 0 0 1 1.587.637 3.794 3.794 0 0 0 2.574.976 3.8 3.8 0 0 0 2.576-.975 2.3 2.3 0 0 1 3.177 0 3.888 3.888 0 0 0 5.15 0 2.3 2.3 0 0 1 3.179 0 3.981 3.981 0 0 0 1.918.919v.056a.807.807 0 0 1-.806.806v1.613a2.422 2.422 0 0 0 2.419-2.419V37.29h8.065v2.42a.807.807 0 0 1-.806.806v1.613a2.422 2.422 0 0 0 2.419-2.419v-.777c.091-.067.19-.128.28-.2a2.3 2.3 0 0 1 3.179 0 3.893 3.893 0 0 0 5.154 0 2.306 2.306 0 0 1 3.185 0 3.9 3.9 0 0 0 5.157 0A2.257 2.257 0 0 1 51 38.1v-1.616a3.8 3.8 0 0 0-2.579.975 2.308 2.308 0 0 1-3.186 0 3.9 3.9 0 0 0-5.157 0 2.3 2.3 0 0 1-3.18 0 3.8 3.8 0 0 0-2.577-.975 3.563 3.563 0 0 0-1.869.481v-2.9H51v-4.839h-8.871V17.935zm3.226-4.835h-5.856L41.29 5.813l8.1 6.852zm-7.544 0h-4.991l2.773-7.21zm-11.811-.432l7.794-6.6-2.7 7.027h-5.094zm4.839 2.045h9.677v1.613h-9.677zm-5.645 9.677a.806.806 0 1 1 1.613 0v4.839h-1.613zm1.613 6.452v1.613h-8.065v-1.616zm-11.29-6.452a.806.806 0 1 1 1.613 0v4.839h-1.614zm2.419-11.29h-5.856l-2.241-7.287 8.1 6.852zm-7.544 0H9.432l2.773-7.21zm-11.811-.435l7.794-6.6L7.7 13.1H2.613zm4.839 2.045h9.677v1.613H7.452zm4.032 3.226H13.1v11.29h-1.616zM2.613 32.452v-1.613h18.548v1.613zm28.226 3.226h-8.065v-1.613h8.065zm18.548-3.226H32.452v-1.613h16.935zm-8.871-3.226H38.9V17.935h1.613z" class="cls-2"/>
        </g>
    </g>
</svg>
