<svg xmlns="http://www.w3.org/2000/svg" width="20" height="20" viewBox="0 0 20 20">
    <defs>
        <style>
            .cls-1{fill:#538070}
        </style>
    </defs>
    <g id="stethoscope" transform="translate(0 -.007)">
        <path id="Контур_1193" d="M19.486 1.8A2.518 2.518 0 0 0 17.459.788h-.34v-.2a.586.586 0 1 0-1.172 0v1.567a.586.586 0 1 0 1.172 0v-.2h.34A1.367 1.367 0 0 1 18.774 3.7l-1.555 5.446a3.557 3.557 0 0 1-6.84 0L8.823 3.7a1.367 1.367 0 0 1 1.315-1.74h.34v.2a.586.586 0 1 0 1.172 0V.593a.586.586 0 1 0-1.172 0v.2h-.34A2.539 2.539 0 0 0 7.7 4.025l1.552 5.443a4.693 4.693 0 0 0 1.7 2.476 4.792 4.792 0 0 0 .553.359l1.709 4.033v.423a2.075 2.075 0 1 1-4.151 0v-4.018a3.359 3.359 0 1 0-6.719 0v1.387a2.93 2.93 0 1 0 1.172 0v-1.387a2.187 2.187 0 1 1 4.375 0v4.018a3.247 3.247 0 1 0 6.494 0v-.423l1.708-4.036a4.788 4.788 0 0 0 .553-.359 4.693 4.693 0 0 0 1.7-2.476l1.554-5.44a2.518 2.518 0 0 0-.414-2.225zM4.687 17a1.758 1.758 0 1 1-1.757-1.759A1.76 1.76 0 0 1 4.687 17zm9.113-2.284L13 12.83a4.772 4.772 0 0 0 1.6 0z" class="cls-1"/>
        <circle id="Эллипс_5" cx="1" cy="1" r="1" class="cls-1" transform="translate(2 16.007)"/>
    </g>
</svg>
