<svg xmlns="http://www.w3.org/2000/svg" viewBox="0 0 20 20">
	<g>
		<path d="M18.1,11.5c-0.4-0.5-0.9-0.7-1.5-0.7h-1.8V9.4H1.5v4c0,2.2,1.1,4.2,2.8,5.4H1.5V20h13.3v-1.2H12c0.6-0.4,1.1-0.9,1.6-1.5h1.3c1.5,0,2.8-1,3.2-2.5l0.4-1.7C18.6,12.6,18.4,12,18.1,11.5L18.1,11.5z M8.2,18.8L8.2,18.8c-3.1,0-5.5-2.4-5.5-5.4v-2.8h10.9v2.8C13.6,16.4,11.2,18.8,8.2,18.8z M17.3,12.8l-0.4,1.7c-0.2,0.9-1.1,1.6-2,1.6h-0.6c0.4-0.9,0.6-1.8,0.6-2.7v-1.5h1.8c0.4,0,0.7,0.3,0.7,0.7C17.3,12.7,17.3,12.8,17.3,12.8L17.3,12.8z"/>
		<path d="M8.2,4.6c-1.1,0-1.9,0.9-1.9,1.9v1.3h1.2V6.6c0-0.4,0.3-0.8,0.8-0.8h5.4c2.6,0,4.6-2.1,4.6-4.6V0H17v1.2c0,1.9-1.5,3.4-3.4,3.4H8.2z"/>
		<path d="M4.7,6.7c0-1.9,1.5-3.4,3.4-3.4h5.4c1.1,0,1.9-0.9,1.9-1.9V0h-1.2v1.3c0,0.4-0.3,0.8-0.8,0.8H8.2c-2.6,0-4.6,2.1-4.6,4.6v1.2h1.2L4.7,6.7z"/>
	</g>
</svg>
