<svg xmlns="http://www.w3.org/2000/svg" viewBox="0 0 20 20">
	<path d="M19.4,9.4c0,0-1.7,0-1.8,0V7.7c0-0.3-0.3-0.6-0.6-0.6l0,0h-5.3V1.8c0-0.3-0.3-0.6-0.6-0.6H6.4c-0.3,0-0.6,0.3-0.6,0.6v5.3H0.6C0.3,7.1,0,7.3,0,7.7c0,0,0,0,0,0v4.7c0,0.3,0.3,0.6,0.6,0.6c0,0,0,0,0,0h5.3v5.3c0,0.3,0.3,0.6,0.6,0.6c0,0,0,0,0,0h6.2c2.2,0,4.3-0.9,5.7-2.5c1.1-1.3,1.7-3,1.7-4.7V10C20,9.7,19.7,9.4,19.4,9.4L19.4,9.4L19.4,9.4z M6.4,11.8H1.2V8.2h5.3C6.8,8.2,7,8,7,7.7V2.4h3.5v5.3c0,0.3,0.3,0.6,0.6,0.6l0,0h5.3v1.3c-1,0.2-1.9,0.6-2.7,1.1c-1.2-0.8-2.5-1.3-4-1.3h-1c-0.3,0-0.6,0.3-0.6,0.6v0v1c0,2,0.9,3.9,2.4,5.2c0,0.5,0,1,0,1.5H7v-5.3C7,12,6.8,11.8,6.4,11.8C6.4,11.8,6.4,11.8,6.4,11.8z M12.1,12.1c0,0-0.1,0.1-0.1,0.1l-0.4-0.4c-0.2-0.2-0.6-0.2-0.8,0s-0.2,0.6,0,0.8l0.5,0.5c-0.2,0.5-0.4,0.9-0.6,1.5c-0.9-1-1.5-2.4-1.5-3.8v-0.4h0.4c1.1,0,2.1,0.3,3,0.9C12.5,11.7,12.3,11.9,12.1,12.1L12.1,12.1z M18.8,11.6c0,1.4-0.5,2.8-1.4,3.9c-1.2,1.4-3,2.2-4.8,2.1l2.5-2.5c0.2-0.2,0.2-0.6,0-0.8c-0.2-0.2-0.6-0.2-0.8,0l-2.7,2.7c-0.1-3.4,2.6-6.3,6-6.4c0.1,0,0.1,0,0.2,0h1L18.8,11.6z"/>
</svg>
