<svg xmlns="http://www.w3.org/2000/svg" width="40" height="45"><defs><style>.cls-3{fill:#212126}</style></defs><g id="cctv" transform="translate(-1131 -5273)"><path id="Прямоугольник_1144" fill="#d4bb96" d="M0 0h40v20a20 20 0 01-20 20H0V0z" opacity=".4" transform="translate(1131 5278)"/><g id="Сгруппировать_981"><path id="Контур_1199" d="M28.18 35.347H1.82A1.822 1.822 0 000 37.167v3.766a1.822 1.822 0 00.941 1.593v4.62a14.059 14.059 0 0024 9.941 13.967 13.967 0 004.118-9.941v-4.62A1.822 1.822 0 0030 40.933v-3.766a1.822 1.822 0 00-1.82-1.82zm-26.422 1.82a.066.066 0 01.062-.067h26.36a.066.066 0 01.062.062v3.766a.066.066 0 01-.062.072H1.82a.066.066 0 01-.063-.062zm7.061 20.61v-4.512a6.182 6.182 0 0112.363 0v4.512a12.278 12.278 0 01-12.363 0zM27.3 47.146a12.278 12.278 0 01-4.361 9.387v-3.268a7.939 7.939 0 00-15.879 0v3.268a12.278 12.278 0 01-4.36-9.387v-4.393h24.6z" class="cls-3" transform="translate(1131 5237.653)"/><path id="Контур_1200" d="M219.191 302.053a2.291 2.291 0 102.291 2.291 2.294 2.294 0 00-2.291-2.291zm0 2.824a.533.533 0 11.533-.533.534.534 0 01-.533.533z" class="cls-3" transform="translate(926.809 4986.574)"/><path id="Контур_1201" d="M173.815 253.853a5.115 5.115 0 105.115 5.115 5.121 5.121 0 00-5.115-5.115zm0 8.473a3.357 3.357 0 113.357-3.357 3.361 3.361 0 01-3.357 3.357z" class="cls-3" transform="translate(972.184 5031.95)"/></g></g></svg>