<svg xmlns="http://www.w3.org/2000/svg" width="20" height="20"><path fill="#538070" d="M18.828 16.585V15.9a1.76 1.76 0 00-1.758-1.758h-5.312v-1.173h6.484a.586.586 0 00.586-.586 7.645 7.645 0 00-7.656-7.617h-.586v-1.25h1.758a.586.586 0 00.586-.586 2.93 2.93 0 00-5.859 0 .586.586 0 00.586.586h1.757v1.25h-.586a7.645 7.645 0 00-7.656 7.617.586.586 0 00.586.586h6.484v1.172H2.93A1.76 1.76 0 001.172 15.9v.686A1.761 1.761 0 000 18.242v1.172A.586.586 0 00.586 20h18.828a.586.586 0 00.586-.586v-1.172a1.761 1.761 0 00-1.172-1.657zM8.343 2.344a1.758 1.758 0 013.315 0zM2.37 11.8a6.478 6.478 0 016.458-5.862h2.344A6.478 6.478 0 0117.63 11.8zm8.216 1.172v1.172H9.414v-1.175zm8.242 5.859H1.172v-.586a.587.587 0 01.586-.586h4.726a.586.586 0 000-1.172h-4.14V15.9a.587.587 0 01.586-.586h14.14a.587.587 0 01.586.586v.586h-4.1a.586.586 0 000 1.172h4.688a.587.587 0 01.586.586z"/></svg>