<svg xmlns="http://www.w3.org/2000/svg" width="40" height="45"><path fill="#d4bb96" d="M0 5h40v20a20 20 0 01-20 20H0V5z" opacity=".4"/><path fill="#212126" d="M28.242 24.877v-1.029a2.64 2.64 0 00-2.637-2.637h-7.968v-1.758h9.727a.879.879 0 00.879-.879A11.468 11.468 0 0016.758 7.148h-.879V5.273h2.637a.879.879 0 00.879-.879 4.395 4.395 0 00-8.789 0 .879.879 0 00.879.879h2.637v1.875h-.879A11.468 11.468 0 001.758 18.574a.879.879 0 00.879.879h9.727v1.758H4.395a2.64 2.64 0 00-2.637 2.637v1.029A2.641 2.641 0 000 27.363v1.758A.879.879 0 00.879 30h28.242a.879.879 0 00.879-.879v-1.758a2.641 2.641 0 00-1.758-2.486zM12.514 3.516a2.637 2.637 0 014.972 0zM3.555 17.7a9.717 9.717 0 019.687-8.789h3.516a9.717 9.717 0 019.687 8.789zm12.323 1.758v1.758h-1.757v-1.763zm12.363 8.789H1.758v-.879a.88.88 0 01.879-.879h7.09a.879.879 0 000-1.758H3.516v-.879a.88.88 0 01.879-.879h21.21a.88.88 0 01.879.879v.879h-6.152a.879.879 0 000 1.758h7.031a.88.88 0 01.879.879z"/></svg>