<svg xmlns="http://www.w3.org/2000/svg" width="20" height="20.001"><defs><style>.cls-1{fill:#538070}</style></defs><g id="povar" transform="translate(-282.606 -424.41)"><path id="Контур_1202" d="M300.795 436.713H284.42a1.817 1.817 0 00-1.814 1.815 2.993 2.993 0 002.328 2.905v4.153a2.984 2.984 0 002.977 2.98h9.389a2.985 2.985 0 002.977-2.976v-4.157a2.993 2.993 0 002.327-2.905 1.818 1.818 0 00-1.809-1.815zm.517 1.811a1.688 1.688 0 01-1.032 1.552v-2.068h.516a.519.519 0 01.516.516zm-2.329-.513v7.575a1.685 1.685 0 01-1.68 1.681h-9.391a1.685 1.685 0 01-1.68-1.681v-7.575zm-14.047 0v2.065a1.687 1.687 0 01-1.032-1.549.517.517 0 01.516-.516z" class="cls-1" transform="translate(0 -4.155)"/><path id="Контур_1203" d="M286.832 431.528a.636.636 0 00.269-.059l12.687-5.821a.648.648 0 00-.044-1.2.646.646 0 00-.5.018l-4.164 1.91a2.395 2.395 0 00-4.411 1.864c.019.046.039.091.06.134l-4.172 1.914a.648.648 0 00.272 1.236zm5.09-4.477a1.089 1.089 0 01.584-.6 1.1 1.1 0 011.4.476l-1.99.913a1.089 1.089 0 01.006-.789z" class="cls-1" transform="translate(-1.208)"/><path id="Контур_1204" d="M303.817 429.52a.875.875 0 01.371 0 .648.648 0 00.006-1.3 2.1 2.1 0 00-2.3 1.86 2.039 2.039 0 000 .449.828.828 0 01-.632.985.879.879 0 01-.367 0 .648.648 0 00-.008 1.3 2.089 2.089 0 002.3-1.859 2.055 2.055 0 000-.447.827.827 0 01.63-.987z" class="cls-1" transform="translate(-5.958 -1.285)"/><path id="Контур_1205" d="M306.169 431.518a.648.648 0 100 1.3 1.976 1.976 0 00.216.011 2.091 2.091 0 002.076-1.871 2.193 2.193 0 000-.447.827.827 0 01.63-.987.875.875 0 01.371 0 .648.648 0 00.007-1.3 2.092 2.092 0 00-2.3 1.86 2.039 2.039 0 000 .449.828.828 0 01-.632.985.893.893 0 01-.368 0z" class="cls-1" transform="translate(-7.74 -1.285)"/></g></svg>