<svg xmlns="http://www.w3.org/2000/svg" width="20" height="20.001" viewBox="0 0 20 20.001">
    <defs>
        <style>
            .cls-1{fill:#538070}
        </style>
    </defs>
    <g id="povar" transform="translate(-282.606 -424.41)">
        <path id="Контур_1202" d="M300.795 436.713H284.42a1.817 1.817 0 0 0-1.814 1.815 2.993 2.993 0 0 0 2.328 2.905v4.153a2.984 2.984 0 0 0 2.977 2.98h9.389a2.985 2.985 0 0 0 2.977-2.976v-4.157a2.993 2.993 0 0 0 2.327-2.905 1.818 1.818 0 0 0-1.809-1.815zm.517 1.811a1.688 1.688 0 0 1-1.032 1.552v-2.068h.516a.519.519 0 0 1 .516.516zm-2.329-.513v7.575a1.685 1.685 0 0 1-1.68 1.681h-9.391a1.685 1.685 0 0 1-1.68-1.681v-7.575zm-14.047 0v2.065a1.687 1.687 0 0 1-1.032-1.549.517.517 0 0 1 .516-.516z" class="cls-1" transform="translate(0 -4.155)"/>
        <path id="Контур_1203" d="M286.832 431.528a.636.636 0 0 0 .269-.059l12.687-5.821a.648.648 0 0 0-.044-1.2.646.646 0 0 0-.5.018l-4.164 1.91a2.395 2.395 0 0 0-4.411 1.864c.019.046.039.091.06.134l-4.172 1.914a.648.648 0 0 0 .272 1.236zm5.09-4.477a1.089 1.089 0 0 1 .584-.6 1.1 1.1 0 0 1 1.4.476l-1.99.913a1.089 1.089 0 0 1 .006-.789z" class="cls-1" transform="translate(-1.208)"/>
        <path id="Контур_1204" d="M303.817 429.52a.875.875 0 0 1 .371 0 .648.648 0 0 0 .006-1.3 2.1 2.1 0 0 0-2.3 1.86 2.039 2.039 0 0 0 0 .449.828.828 0 0 1-.632.985.879.879 0 0 1-.367 0 .648.648 0 0 0-.008 1.3 2.089 2.089 0 0 0 2.3-1.859 2.055 2.055 0 0 0 0-.447.827.827 0 0 1 .63-.987z" class="cls-1" transform="translate(-5.958 -1.285)"/>
        <path id="Контур_1205" d="M306.169 431.518a.648.648 0 1 0 0 1.3 1.976 1.976 0 0 0 .216.011 2.091 2.091 0 0 0 2.076-1.871 2.193 2.193 0 0 0 0-.447.827.827 0 0 1 .63-.987.875.875 0 0 1 .371 0 .648.648 0 0 0 .007-1.3 2.092 2.092 0 0 0-2.3 1.86 2.039 2.039 0 0 0 0 .449.828.828 0 0 1-.632.985.893.893 0 0 1-.368 0z" class="cls-1" transform="translate(-7.74 -1.285)"/>
    </g>
</svg>
