<svg xmlns="http://www.w3.org/2000/svg" width="40" height="45" viewBox="0 0 40 45">
    <defs>
        <style>
            .cls-2{fill:#212126}
        </style>
    </defs>
    <g id="stethoscope" transform="translate(-507 -5273)">
        <path id="Прямоугольник_1142" fill="#d4bb96" d="M0 0h40v20a20 20 0 0 1-20 20H0V0z" opacity="0.4" transform="translate(507 5278)"/>
        <g id="stethoscope-2" transform="translate(507 5272.993)">
            <path id="Контур_1193" d="M29.23 2.694a3.778 3.778 0 0 0-3.04-1.515h-.511V.886a.879.879 0 1 0-1.758 0V3.23a.879.879 0 1 0 1.758 0v-.293h.511a2.051 2.051 0 0 1 1.972 2.614l-2.333 8.165a5.335 5.335 0 0 1-10.26 0l-2.333-8.165a2.051 2.051 0 0 1 1.972-2.614h.511v.293a.879.879 0 1 0 1.758 0V.886a.879.879 0 0 0-1.758 0v.293h-.511a3.809 3.809 0 0 0-3.662 4.855l2.332 8.166a7.04 7.04 0 0 0 2.549 3.714 7.188 7.188 0 0 0 .829.539L19.82 24.5v.634a3.113 3.113 0 0 1-6.226 0v-6.025a5.039 5.039 0 1 0-10.078 0v2.081a4.395 4.395 0 1 0 1.758 0v-2.081a3.281 3.281 0 1 1 6.563 0v6.028a4.871 4.871 0 1 0 9.742 0V24.5l2.563-6.05a7.182 7.182 0 0 0 .829-.539 7.039 7.039 0 0 0 2.548-3.711l2.333-8.165a3.777 3.777 0 0 0-.622-3.34zM7.031 25.5a2.637 2.637 0 1 1-2.637-2.637A2.64 2.64 0 0 1 7.031 25.5zM20.7 22.07l-1.2-2.829a7.159 7.159 0 0 0 2.4 0z" class="cls-2"/>
            <circle id="Эллипс_5" cx="1.5" cy="1.5" r="1.5" class="cls-2" transform="translate(3 24.007)"/>
        </g>
    </g>
</svg>
