<svg xmlns="http://www.w3.org/2000/svg" width="150" height="45"><defs><style>.cls-2{fill:#fff}</style></defs><g id="Download_on_the_App_Store_Badge" transform="translate(-.89 .11)"><path id="Контур_1157" fill="#212126" d="M150.89 41.379a4.416 4.416 0 01-4.319 4.511H5.215A4.421 4.421 0 01.89 41.379V5.407A4.427 4.427 0 015.215.89h141.354a4.421 4.421 0 014.319 4.517v35.972z" transform="translate(0 -1)"/><g id="Сгруппировать_859" transform="translate(14.309 6.896)"><g id="Сгруппировать_858"><path id="Контур_1158" d="M32.337 20.729a6.536 6.536 0 013.113-5.484 6.694 6.694 0 00-5.272-2.85c-2.218-.233-4.369 1.327-5.5 1.327-1.152 0-2.892-1.3-4.767-1.266a7.019 7.019 0 00-5.908 3.6c-2.555 4.423-.649 10.923 1.8 14.5 1.224 1.751 2.655 3.706 4.528 3.637 1.832-.076 2.516-1.168 4.727-1.168 2.191 0 2.833 1.168 4.743 1.124 1.966-.032 3.2-1.759 4.386-3.526a14.468 14.468 0 002.006-4.085 6.318 6.318 0 01-3.856-5.809z" class="cls-2" transform="translate(-12.792 -5.433)"/><path id="Контур_1159" d="M27.415 10.827a6.433 6.433 0 001.472-4.61 6.553 6.553 0 00-4.237 2.192 6.122 6.122 0 00-1.511 4.44 5.413 5.413 0 004.276-2.022z" class="cls-2" transform="translate(-11.477 -6.217)"/></g></g><g id="Сгруппировать_860" transform="translate(47.591 20.182)"><path id="Контур_1160" d="M55.077 33.2h-2.56l-1.4-4.407h-4.878L44.9 33.2h-2.49l4.83-15h2.983zm-4.386-6.256l-1.268-3.918q-.2-.6-.757-2.826h-.045q-.222.957-.713 2.826l-1.246 3.918z" class="cls-2" transform="translate(-42.41 -17.976)"/><path id="Контур_1161" d="M65.84 27.21a6.148 6.148 0 01-1.492 4.362A4.361 4.361 0 0161.031 33a3.317 3.317 0 01-3.072-1.536h-.045v5.7h-2.4V25.495q0-1.735-.089-3.562h2.114l.134 1.715h.045a4.277 4.277 0 016.845-.424 5.961 5.961 0 011.277 3.986zm-2.449.088a4.454 4.454 0 00-.713-2.6 2.461 2.461 0 00-2.093-1.069 2.5 2.5 0 00-1.613.59 2.735 2.735 0 00-.946 1.548 3.147 3.147 0 00-.112.733v1.8a2.891 2.891 0 00.724 1.993 2.4 2.4 0 001.881.813 2.461 2.461 0 002.114-1.046 4.6 4.6 0 00.758-2.76z" class="cls-2" transform="translate(-40.752 -17.528)"/><path id="Контур_1162" d="M76.877 27.21a6.143 6.143 0 01-1.493 4.362A4.357 4.357 0 0172.068 33 3.314 3.314 0 0169 31.461h-.045v5.7h-2.4V25.495q0-1.735-.089-3.562h2.114l.134 1.715h.045a4.278 4.278 0 016.846-.424 5.977 5.977 0 011.272 3.986zm-2.449.088a4.454 4.454 0 00-.714-2.6 2.458 2.458 0 00-2.091-1.069 2.5 2.5 0 00-1.615.59 2.733 2.733 0 00-.945 1.548 3.209 3.209 0 00-.112.733v1.8a2.9 2.9 0 00.722 1.993 2.4 2.4 0 001.883.813 2.461 2.461 0 002.114-1.046 4.6 4.6 0 00.758-2.76z" class="cls-2" transform="translate(-39.345 -17.528)"/><path id="Контур_1163" d="M89.091 29.017a4 4 0 01-1.333 3.116 5.906 5.906 0 01-4.087 1.313 7.154 7.154 0 01-3.889-.935l.557-2a6.589 6.589 0 003.475.958 3.285 3.285 0 002.116-.613 2 2 0 00.755-1.639 2.09 2.09 0 00-.623-1.538 5.8 5.8 0 00-2.07-1.16q-3.94-1.47-3.939-4.3a3.807 3.807 0 011.381-3.032A5.445 5.445 0 0185.108 18a7.282 7.282 0 013.4.713l-.6 1.959a5.908 5.908 0 00-2.872-.69 2.907 2.907 0 00-1.98.623 1.781 1.781 0 00-.6 1.359 1.834 1.834 0 00.689 1.469 7.786 7.786 0 002.183 1.158 7.405 7.405 0 012.849 1.824 3.811 3.811 0 01.914 2.602z" class="cls-2" transform="translate(-37.647 -18.001)"/><path id="Контур_1164" d="M95.833 24.017h-2.65v5.253q0 2 1.4 2a4.275 4.275 0 001.068-.112l.067 1.825a5.446 5.446 0 01-1.869.266 2.884 2.884 0 01-2.227-.868 4.265 4.265 0 01-.8-2.917v-5.45h-1.578v-1.8h1.578V20.23l2.361-.713v2.693h2.649v1.806z" class="cls-2" transform="translate(-36.441 -17.808)"/><path id="Контур_1165" d="M106.889 27.253a5.935 5.935 0 01-1.425 4.1A5.088 5.088 0 01101.5 33a4.838 4.838 0 01-3.794-1.58 5.753 5.753 0 01-1.414-3.984 5.877 5.877 0 011.458-4.117 5.045 5.045 0 013.928-1.6 4.941 4.941 0 013.829 1.581 5.687 5.687 0 011.382 3.953zm-2.494.078a4.866 4.866 0 00-.645-2.567 2.374 2.374 0 00-2.158-1.294 2.41 2.41 0 00-2.2 1.294 4.96 4.96 0 00-.645 2.612 4.86 4.86 0 00.645 2.566 2.457 2.457 0 004.341-.023 4.884 4.884 0 00.662-2.588z" class="cls-2" transform="translate(-35.543 -17.528)"/><path id="Контур_1166" d="M113.275 24.047a4.174 4.174 0 00-.758-.067 2.271 2.271 0 00-1.959.958 3.6 3.6 0 00-.6 2.137v5.677h-2.4l.023-7.412q0-1.87-.09-3.406h2.094l.088 2.07h.067a3.7 3.7 0 011.2-1.714 2.906 2.906 0 011.737-.58 3.859 3.859 0 01.6.044v2.292z" class="cls-2" transform="translate(-34.116 -17.528)"/><path id="Контур_1167" d="M123.243 26.833a5.637 5.637 0 01-.088 1.09h-7.211a3.139 3.139 0 001.046 2.45 3.572 3.572 0 002.359.757 7.976 7.976 0 002.918-.512l.377 1.669a9.021 9.021 0 01-3.627.669 5.254 5.254 0 01-3.953-1.48 5.467 5.467 0 01-1.435-3.973 6.2 6.2 0 011.337-4.073 4.607 4.607 0 013.783-1.735 4.032 4.032 0 013.541 1.735 5.851 5.851 0 01.953 3.403zm-2.292-.623a3.266 3.266 0 00-.467-1.848 2.1 2.1 0 00-1.916-1 2.28 2.28 0 00-1.913.98 3.587 3.587 0 00-.711 1.869h5.007z" class="cls-2" transform="translate(-33.334 -17.53)"/></g><g id="Сгруппировать_862" transform="translate(49.019 7.278)"><g id="Сгруппировать_861"><path id="Контур_1168" d="M49.735 10.412a3.7 3.7 0 01-1.193 3 4.744 4.744 0 01-3.138.929 14.548 14.548 0 01-1.728-.088V7a12.754 12.754 0 012.035-.153 4.387 4.387 0 012.92.842 3.4 3.4 0 011.104 2.723zm-1.246.033a2.7 2.7 0 00-.683-1.98 2.693 2.693 0 00-2-.689 5 5 0 00-.952.077v5.512a6.238 6.238 0 00.8.033 2.8 2.8 0 002.094-.754 3.021 3.021 0 00.741-2.199z" class="cls-2" transform="translate(-43.676 -6.519)"/><path id="Контур_1169" d="M55.5 11.345a2.915 2.915 0 01-.7 2.012 2.5 2.5 0 01-1.947.81 2.375 2.375 0 01-1.865-.777 2.829 2.829 0 01-.693-1.957 2.887 2.887 0 01.716-2.023 2.483 2.483 0 011.93-.787 2.431 2.431 0 011.879.777 2.806 2.806 0 01.68 1.945zm-1.226.038a2.4 2.4 0 00-.317-1.262 1.167 1.167 0 00-1.06-.636 1.185 1.185 0 00-1.083.636 2.436 2.436 0 00-.317 1.283 2.4 2.4 0 00.317 1.262 1.192 1.192 0 001.072.636 1.179 1.179 0 001.06-.647 2.389 2.389 0 00.326-1.272z" class="cls-2" transform="translate(-42.833 -6.293)"/><path id="Контур_1170" d="M63.635 8.719l-1.663 5.315H60.89l-.69-2.308a17.275 17.275 0 01-.427-1.717h-.021a12.57 12.57 0 01-.427 1.717l-.732 2.308H57.5l-1.565-5.315h1.214l.6 2.527q.218.9.361 1.706h.021q.132-.666.439-1.695l.754-2.537h.963l.723 2.483q.262.908.426 1.75h.033a16.719 16.719 0 01.361-1.75l.645-2.483h1.16z" class="cls-2" transform="translate(-42.114 -6.28)"/><path id="Контур_1171" d="M68.725 14.046h-1.182V11q0-1.407-1.071-1.407a1.066 1.066 0 00-.853.387 1.372 1.372 0 00-.328.911v3.152h-1.182V10.25q0-.7-.043-1.521H65.1l.055.831h.033a1.707 1.707 0 01.612-.642 2 2 0 011.071-.3 1.7 1.7 0 011.237.481 2.339 2.339 0 01.612 1.761z" class="cls-2" transform="translate(-41.077 -6.293)"/><path id="Контур_1172" d="M71.221 14.309h-1.18V6.556h1.18z" class="cls-2" transform="translate(-40.316 -6.556)"/><path id="Контур_1173" d="M77.846 11.345a2.915 2.915 0 01-.7 2.012 2.5 2.5 0 01-1.947.81 2.372 2.372 0 01-1.865-.777 2.829 2.829 0 01-.693-1.957 2.887 2.887 0 01.716-2.023 2.482 2.482 0 011.929-.787 2.433 2.433 0 011.883.776 2.806 2.806 0 01.677 1.946zm-1.227.038a2.4 2.4 0 00-.317-1.262 1.165 1.165 0 00-1.059-.636 1.183 1.183 0 00-1.083.636 2.436 2.436 0 00-.317 1.283 2.4 2.4 0 00.317 1.262 1.192 1.192 0 001.072.636 1.177 1.177 0 001.059-.647 2.378 2.378 0 00.329-1.272z" class="cls-2" transform="translate(-39.985 -6.293)"/><path id="Контур_1174" d="M82.823 14.046h-1.061l-.088-.612h-.033a1.82 1.82 0 01-1.552.733 1.6 1.6 0 01-1.213-.481 1.509 1.509 0 01-.416-1.086 1.651 1.651 0 01.815-1.487 4.231 4.231 0 012.292-.5v-.1q0-1.05-1.1-1.05a2.472 2.472 0 00-1.386.393l-.24-.776a3.408 3.408 0 011.823-.459q2.084 0 2.086 2.2v1.957a8.3 8.3 0 00.073 1.268zM81.6 12.22v-.82q-1.955-.034-1.955 1.071a.8.8 0 00.227.623.826.826 0 00.577.207 1.193 1.193 0 00.723-.246 1.009 1.009 0 00.428-.837z" class="cls-2" transform="translate(-39.243 -6.293)"/><path id="Контур_1175" d="M88.858 14.309H87.81l-.055-.853h-.033a1.767 1.767 0 01-1.707.974 2 2 0 01-1.6-.754 2.939 2.939 0 01-.634-1.957 3.081 3.081 0 01.689-2.089 2.118 2.118 0 011.64-.744 1.593 1.593 0 011.5.722h.023V6.556h1.183v6.322q.001.776.042 1.431zm-1.224-2.241v-.886a1.739 1.739 0 00-.033-.372 1.346 1.346 0 00-.427-.716 1.161 1.161 0 00-.79-.29 1.212 1.212 0 00-1.04.525 2.252 2.252 0 00-.379 1.345 2.1 2.1 0 00.363 1.28 1.216 1.216 0 001.033.524 1.138 1.138 0 00.934-.437 1.456 1.456 0 00.339-.973z" class="cls-2" transform="translate(-38.564 -6.556)"/><path id="Контур_1176" d="M97.836 11.345a2.915 2.915 0 01-.7 2.012 2.5 2.5 0 01-1.947.81 2.378 2.378 0 01-1.865-.777 2.829 2.829 0 01-.693-1.957 2.887 2.887 0 01.716-2.023 2.484 2.484 0 011.931-.787 2.428 2.428 0 011.881.776 2.806 2.806 0 01.677 1.946zm-1.224.038a2.4 2.4 0 00-.317-1.262 1.168 1.168 0 00-1.061-.636 1.188 1.188 0 00-1.083.636 2.436 2.436 0 00-.317 1.283 2.4 2.4 0 00.317 1.262 1.207 1.207 0 002.133-.011 2.4 2.4 0 00.328-1.272z" class="cls-2" transform="translate(-37.437 -6.293)"/><path id="Контур_1177" d="M103.409 14.046h-1.18V11q0-1.407-1.072-1.407a1.062 1.062 0 00-.852.387 1.366 1.366 0 00-.328.911v3.152h-1.183V10.25q0-.7-.042-1.521h1.037l.055.831h.033a1.725 1.725 0 01.612-.642 2 2 0 011.072-.3 1.7 1.7 0 011.239.482 2.335 2.335 0 01.612 1.761z" class="cls-2" transform="translate(-36.657 -6.293)"/><path id="Контур_1178" d="M110.3 9.754H109v2.582c0 .656.231.984.689.984a2.081 2.081 0 00.527-.055l.03.9a2.655 2.655 0 01-.918.132 1.413 1.413 0 01-1.092-.426 2.084 2.084 0 01-.395-1.433V9.754h-.777v-.885h.777v-.974l1.159-.35v1.322h1.3v.886z" class="cls-2" transform="translate(-35.598 -6.43)"/><path id="Контур_1179" d="M116.006 14.309h-1.183v-3.021q0-1.429-1.07-1.43a1.128 1.128 0 00-1.127.829 1.485 1.485 0 00-.055.425v3.2h-1.18V6.556h1.18v3.2h.023a1.786 1.786 0 011.6-.874 1.647 1.647 0 011.215.481 2.42 2.42 0 01.6 1.782v3.16z" class="cls-2" transform="translate(-35.046 -6.556)"/><path id="Контур_1180" d="M121.741 11.138a2.852 2.852 0 01-.044.536h-3.544a1.55 1.55 0 00.513 1.2 1.76 1.76 0 001.16.372A3.915 3.915 0 00121.26 13l.185.821a4.45 4.45 0 01-1.784.328 2.576 2.576 0 01-1.94-.727 2.679 2.679 0 01-.7-1.952 3.042 3.042 0 01.656-2 2.26 2.26 0 011.858-.852 1.977 1.977 0 011.737.852 2.837 2.837 0 01.469 1.668zm-1.127-.306a1.591 1.591 0 00-.229-.908 1.032 1.032 0 00-.94-.493 1.122 1.122 0 00-.94.481 1.789 1.789 0 00-.351.919h2.46z" class="cls-2" transform="translate(-34.329 -6.294)"/></g></g></g></svg>