<svg xmlns="http://www.w3.org/2000/svg" width="150" height="45" viewBox="0 0 150 45">
    <defs>
        <linearGradient id="4sfvutkz2a" x1="2.472" x2="2.361" y1="1.035" y2="1.005" gradientUnits="objectBoundingBox">
            <stop offset="0" stop-color="#00a0ff"/>
            <stop offset=".007" stop-color="#00a1ff"/>
            <stop offset=".26" stop-color="#00beff"/>
            <stop offset=".512" stop-color="#00d2ff"/>
            <stop offset=".76" stop-color="#00dfff"/>
            <stop offset="1" stop-color="#00e3ff"/>
        </linearGradient>
        <linearGradient id="qbs82nsewb" x1="1.95" x2="1.69" y1="1.879" y2="1.879" gradientUnits="objectBoundingBox">
            <stop offset="0" stop-color="#ffe000"/>
            <stop offset=".409" stop-color="#ffbd00"/>
            <stop offset=".775" stop-color="orange"/>
            <stop offset="1" stop-color="#ff9c00"/>
        </linearGradient>
        <linearGradient id="s389tf1brc" x1="1.926" x2="1.835" y1=".946" y2=".793" gradientUnits="objectBoundingBox">
            <stop offset="0" stop-color="#ff3a44"/>
            <stop offset="1" stop-color="#c31162"/>
        </linearGradient>
        <linearGradient id="fh9ulhyw5d" x1="1.856" x2="1.897" y1="2.093" y2="2.025" gradientUnits="objectBoundingBox">
            <stop offset="0" stop-color="#32a071"/>
            <stop offset=".068" stop-color="#2da771"/>
            <stop offset=".476" stop-color="#15cf74"/>
            <stop offset=".801" stop-color="#06e775"/>
            <stop offset="1" stop-color="#00f076"/>
        </linearGradient>
    </defs>
    <g>
        <path fill="#212126" fill-rule="evenodd" d="M144.442 45H5.558A5.607 5.607 0 0 1 0 39.375V5.625A5.6 5.6 0 0 1 5.558 0h138.884A5.6 5.6 0 0 1 150 5.625v33.75A5.609 5.609 0 0 1 144.442 45z" transform="translate(0 1) translate(0 -1)"/>
        <path fill="#fff" d="M1687.67 278.455a3.368 3.368 0 0 1-2.514-1.04 3.542 3.542 0 0 1-1.016-2.539 3.464 3.464 0 0 1 1.016-2.536 3.357 3.357 0 0 1 2.511-1.04 3.4 3.4 0 0 1 2.514 1.04 3.674 3.674 0 0 1 0 5.072 3.34 3.34 0 0 1-2.511 1.043zm-29.805 0a3.492 3.492 0 0 1-2.525-1.027 3.576 3.576 0 0 1 2.525-6.126 3.519 3.519 0 0 1 1.41.293 2.852 2.852 0 0 1 1.073.767l.066.08-.748.734-.077-.091a2.126 2.126 0 0 0-1.736-.748 2.4 2.4 0 0 0-1.73.706 2.682 2.682 0 0 0 0 3.676 2.53 2.53 0 0 0 3.507 0 1.911 1.911 0 0 0 .508-1.151h-2.4v-1.032h3.427l.014.094a3.776 3.776 0 0 1 .05.519 3.107 3.107 0 0 1-.855 2.29 3.339 3.339 0 0 1-2.509 1.016zm39.629-.146h-1.057l-3.237-5.18.028.933v4.244h-1.057v-6.857h1.206l.033.052 3.044 4.879-.028-.93v-4h1.068zm-17.766 0h-1.071v-5.828h-1.857v-1.032h4.782v1.032h-1.857v5.828zm-3.8 0h-1.068v-6.86h1.068zm-6 0h-1.068v-5.828H1667v-1.032h4.782v1.032h-1.857zm-3.6-.011h-4.1v-6.849h4.1v1.032h-3.028v1.882h2.729v1.021h-2.729v1.882h3.024zm19.614-1.592a2.363 2.363 0 0 0 1.73.717 2.3 2.3 0 0 0 1.73-.717 2.719 2.719 0 0 0 0-3.654 2.368 2.368 0 0 0-1.73-.717 2.293 2.293 0 0 0-1.727.717 2.723 2.723 0 0 0-.005 3.654z" transform="translate(0 1) translate(-1608.65 -263.813)"/>
        <path fill="#fff" fill-rule="evenodd" d="M1676.651 688.226a4.708 4.708 0 1 0 4.721 4.708 4.634 4.634 0 0 0-4.721-4.708zm0 7.55a2.861 2.861 0 1 1 2.655-2.853 2.724 2.724 0 0 1-2.655 2.853zm-10.3-7.55a4.708 4.708 0 1 0 4.721 4.708 4.634 4.634 0 0 0-4.722-4.708zm0 7.55a2.861 2.861 0 1 1 2.655-2.853 2.724 2.724 0 0 1-2.656 2.853zm-12.258-6.112v1.992h4.782a4.2 4.2 0 0 1-1.082 2.508 4.88 4.88 0 0 1-3.689 1.463 5.313 5.313 0 0 1 0-10.624 5.1 5.1 0 0 1 3.6 1.427l1.413-1.413a6.947 6.947 0 0 0-5-2.017 7.305 7.305 0 1 0 0 14.609 6.686 6.686 0 0 0 5.1-2.053 6.611 6.611 0 0 0 1.733-4.672 6.154 6.154 0 0 0-.11-1.242h-6.75l.003.022zm50.137 1.551a4.375 4.375 0 0 0-4.032-3 4.472 4.472 0 0 0-4.437 4.708 4.6 4.6 0 0 0 4.672 4.708 4.672 4.672 0 0 0 3.921-2.089l-1.6-1.071a2.677 2.677 0 0 1-2.312 1.3 2.4 2.4 0 0 1-2.288-1.427l6.294-2.608-.218-.521zm-6.419 1.573a2.584 2.584 0 0 1 2.459-2.743 1.815 1.815 0 0 1 1.747 1zm-5.113 4.561h2.067v-13.83h-2.065zm-3.394-8.077h-.074a3.261 3.261 0 0 0-2.484-1.057 4.708 4.708 0 0 0 0 9.407 3.252 3.252 0 0 0 2.484-1.071h.074v.676c0 1.8-.96 2.765-2.508 2.765a2.61 2.61 0 0 1-2.373-1.672l-1.8.751a4.494 4.494 0 0 0 4.167 2.779c2.423 0 4.476-1.427 4.476-4.906V688.5h-1.954v.775zm-2.373 6.5a2.862 2.862 0 0 1 0-5.7 2.646 2.646 0 0 1 2.508 2.864 2.614 2.614 0 0 1-2.509 2.84zm26.977-12.258h-4.942v13.831h2.067v-5.237h2.878a4.3 4.3 0 1 0 0-8.593zm.061 6.661h-2.939v-4.746h2.939a2.374 2.374 0 1 1 0 4.746zm12.763-1.979a3.893 3.893 0 0 0-3.689 2.114l1.832.762a1.965 1.965 0 0 1 1.882-1.021 2 2 0 0 1 2.177 1.783v.146a4.63 4.63 0 0 0-2.152-.53c-1.979 0-3.985 1.082-3.985 3.11a3.2 3.2 0 0 0 3.43 3.049 2.909 2.909 0 0 0 2.63-1.352h.075v1.071h1.992v-5.3c-.002-2.46-1.834-3.828-4.194-3.828zm-.259 7.575c-.676 0-1.623-.331-1.623-1.181 0-1.071 1.181-1.476 2.188-1.476a3.587 3.587 0 0 1 1.882.466 2.488 2.488 0 0 1-2.449 2.196zm11.72-7.279l-2.373 6h-.075l-2.459-6h-2.224l3.689 8.386-2.1 4.661h2.152l5.676-13.047zm-18.6 8.852h2.067v-13.825h-2.067z" transform="translate(0 1) translate(-1601.26 -664.153)"/>
        <path fill="url(#4sfvutkz2a)" fill-rule="evenodd" d="M400.605 299.474a2.242 2.242 0 0 0-.505 1.562V325.5a2.134 2.134 0 0 0 .516 1.548l.086.074 13.709-13.709v-.306l-13.72-13.707z" transform="translate(0 1) translate(-389.059 -291.138)"/>
        <path fill="url(#qbs82nsewb)" fill-rule="evenodd" d="M922.872 639.965l-4.572-4.572v-.32l4.572-4.572.1.061 5.409 3.074c1.548.872 1.548 2.312 0 3.2l-5.409 3.074z" transform="translate(0 1) translate(-892.96 -613.101)"/>
        <path fill="url(#s389tf1brc)" fill-rule="evenodd" d="M436.866 806.672L432.195 802 418.4 815.795a1.811 1.811 0 0 0 2.3.075l16.168-9.2" transform="translate(0 1) translate(-406.854 -779.869)"/>
        <path fill="url(#fh9ulhyw5d)" fill-rule="evenodd" d="M436.866 296.034l-16.166-9.183a1.793 1.793 0 0 0-2.3.074l13.795 13.781z" transform="translate(0 1) translate(-406.854 -278.575)"/>
        <path fill-rule="evenodd" d="M437.156 967.7l-16.056 9.123a1.822 1.822 0 0 1-2.213.011l-.086.086.086.074a1.826 1.826 0 0 0 2.213-.011l16.168-9.184z" opacity="0.2" transform="translate(0 1) translate(-407.243 -940.996)"/>
        <path fill-rule="evenodd" d="M1089.022 803.438l-5.522 3.135.1.1 5.409-3.074a1.938 1.938 0 0 0 1.156-1.6 1.991 1.991 0 0 1-1.143 1.439z" opacity="0.12" transform="translate(0 1) translate(-1053.601 -779.869)"/>
        <path fill="#fff" fill-rule="evenodd" d="M402.9 286.841l21.58 12.259a2.034 2.034 0 0 1 1.156 1.438 1.938 1.938 0 0 0-1.156-1.6l-21.58-12.257c-1.548-.886-2.8-.146-2.8 1.623v.16c0-1.772 1.256-2.498 2.8-1.623z" opacity="0.25" transform="translate(0 1) translate(-389.059 -278.405)"/>
    </g>
</svg>
