<svg xmlns="http://www.w3.org/2000/svg" viewBox="0 0 18 18"><path d="M17.3 2.3H6.6C6.2 1.1 5 .5 3.8.9c-.7.2-1.2.7-1.4 1.4H.7c-.4 0-.7.3-.7.7s.3.7.7.7h1.7C2.8 4.9 4 5.5 5.2 5.1c.7-.2 1.2-.7 1.4-1.4h10.7c.4 0 .7-.3.7-.7 0-.4-.3-.7-.7-.7zM4.4 3.8c-.4 0-.8-.4-.8-.8s.4-.8.8-.8.8.4.8.8-.3.8-.8.8zm12.9 4.5h-1.7c-.4-1.2-1.6-1.8-2.8-1.4-.7.2-1.2.7-1.4 1.4H.7c-.4 0-.7.3-.7.7s.3.7.7.7h10.7c.4 1.2 1.6 1.8 2.8 1.4.7-.2 1.2-.7 1.4-1.4h1.7c.4 0 .7-.3.7-.7s-.3-.7-.7-.7zm-3.8 1.5c-.4 0-.8-.4-.8-.8s.4-.8.8-.8.8.4.8.8-.4.8-.8.8zm3.8 4.5H9.6c-.4-1.2-1.6-1.8-2.8-1.4-.7.2-1.2.7-1.4 1.4H.7c-.4 0-.7.3-.7.7s.3.7.7.7h4.7c.4 1.2 1.6 1.8 2.8 1.4.7-.2 1.2-.7 1.4-1.4h7.7c.4 0 .7-.3.7-.7 0-.4-.3-.7-.7-.7zm-9.8 1.5c-.4 0-.8-.4-.8-.8s.4-.8.8-.8.8.4.8.8c0 .5-.4.8-.8.8z"/></svg>