<svg xmlns="http://www.w3.org/2000/svg" viewBox="0 0 20 20"><path d="M18.1 11.5c-.4-.5-.9-.7-1.5-.7h-1.8V9.4H1.5v4c0 2.2 1.1 4.2 2.8 5.4H1.5V20h13.3v-1.2H12c.6-.4 1.1-.9 1.6-1.5h1.3c1.5 0 2.8-1 3.2-2.5l.4-1.7c.1-.5-.1-1.1-.4-1.6zm-9.9 7.3c-3.1 0-5.5-2.4-5.5-5.4v-2.8h10.9v2.8c0 3-2.4 5.4-5.4 5.4zm9.1-6l-.4 1.7c-.2.9-1.1 1.6-2 1.6h-.6c.4-.9.6-1.8.6-2.7v-1.5h1.8c.4 0 .7.3.7.7-.1.1-.1.2-.1.2zM8.2 4.6c-1.1 0-1.9.9-1.9 1.9v1.3h1.2V6.6c0-.4.3-.8.8-.8h5.4c2.6 0 4.6-2.1 4.6-4.6V0H17v1.2c0 1.9-1.5 3.4-3.4 3.4H8.2z"/><path d="M4.7 6.7c0-1.9 1.5-3.4 3.4-3.4h5.4c1.1 0 1.9-.9 1.9-1.9V0h-1.2v1.3c0 .4-.3.8-.8.8H8.2c-2.6 0-4.6 2.1-4.6 4.6v1.2h1.2l-.1-1.2z"/></svg>