<svg xmlns="http://www.w3.org/2000/svg" viewBox="0 0 20 20"><path d="M19.4 9.4h-1.8V7.7c0-.3-.3-.6-.6-.6h-5.3V1.8c0-.3-.3-.6-.6-.6H6.4c-.3 0-.6.3-.6.6v5.3H.6c-.3 0-.6.2-.6.6v4.7c0 .3.3.6.6.6h5.3v5.3c0 .3.3.6.6.6h6.2c2.2 0 4.3-.9 5.7-2.5 1.1-1.3 1.7-3 1.7-4.7V10c-.1-.3-.4-.6-.7-.6zm-13 2.4H1.2V8.2h5.3c.3 0 .5-.2.5-.5V2.4h3.5v5.3c0 .3.3.6.6.6h5.3v1.3c-1 .2-1.9.6-2.7 1.1-1.2-.8-2.5-1.3-4-1.3h-1c-.3 0-.6.3-.6.6v1c0 2 .9 3.9 2.4 5.2v1.5H7v-5.3c0-.4-.2-.6-.6-.6zm5.7.3l-.1.1-.4-.4c-.2-.2-.6-.2-.8 0s-.2.6 0 .8l.5.5c-.2.5-.4.9-.6 1.5-.9-1-1.5-2.4-1.5-3.8v-.4h.4c1.1 0 2.1.3 3 .9-.1.4-.3.6-.5.8zm6.7-.5c0 1.4-.5 2.8-1.4 3.9-1.2 1.4-3 2.2-4.8 2.1l2.5-2.5c.2-.2.2-.6 0-.8-.2-.2-.6-.2-.8 0L11.6 17c-.1-3.4 2.6-6.3 6-6.4h1.2v1z"/></svg>