<svg xmlns="http://www.w3.org/2000/svg" width="80" height="55" viewBox="0 0 80 55">
    <g fill="#212126">
        <path d="M16.77 281.153a.976.976 0 0 0-.442.109 8.844 8.844 0 0 0-4.473 7.7 8.974 8.974 0 0 0 4.458 7.754.979.979 0 1 0 .876-1.749 6.609 6.609 0 0 1-3.374-6 6.454 6.454 0 0 1 3.366-5.94.979.979 0 0 0-.411-1.871zm23.452 0a.979.979 0 0 0-.405 1.866 6.6 6.6 0 0 1 3.374 6 6.454 6.454 0 0 1-3.366 5.94.981.981 0 0 0 .86 1.763 8.846 8.846 0 0 0 4.466-7.7 8.97 8.97 0 0 0-4.458-7.752.98.98 0 0 0-.47-.117zm-20.541 1.959a.978.978 0 0 0-.528.166s-3.382 2.073-3.382 5.686 3.374 5.737 3.374 5.737a.979.979 0 1 0 1.084-1.625s-2.5-1.791-2.5-4.112 2.485-4.045 2.485-4.045a.979.979 0 0 0-.533-1.806zm17.629 0a.979.979 0 0 0-.535 1.8s2.5 1.789 2.5 4.11-2.485 4.039-2.485 4.039a.98.98 0 0 0 1.061 1.648s3.382-2.075 3.382-5.687-3.374-5.737-3.374-5.737a.978.978 0 0 0-.549-.172zm-14.66 1.958a.979.979 0 0 0-.44.1 4.479 4.479 0 0 0-2.523 3.793 4.578 4.578 0 0 0 2.5 3.837.979.979 0 1 0 .874-1.749 2.674 2.674 0 0 1-1.415-2.088 2.51 2.51 0 0 1 1.394-2.023.979.979 0 0 0-.39-1.871zm11.7 0a.979.979 0 0 0-.405 1.864 2.675 2.675 0 0 1 1.417 2.088 2.515 2.515 0 0 1-1.394 2.025.979.979 0 1 0 .83 1.77 4.483 4.483 0 0 0 2.522-3.795 4.591 4.591 0 0 0-2.5-3.843.981.981 0 0 0-.47-.109zm-5.838 2.94a1.777 1.777 0 0 0-1.344.7 2.774 2.774 0 0 0-.463 1.011 5.092 5.092 0 0 0-.168 1.13l-3.753 23.588H6a4.9 4.9 0 0 0-4.89 4.89v7.832A4.9 4.9 0 0 0 6 332.055h2.938V335a.979.979 0 0 0 .975.977h3.915A.979.979 0 0 0 14.8 335v-2.94h27.408V335a.979.979 0 0 0 .983.977h3.917a.979.979 0 0 0 .975-.977v-2.94h2.94a4.9 4.9 0 0 0 4.892-4.892v-7.832a4.9 4.9 0 0 0-4.892-4.89H34.237l-3.8-23.634a4.643 4.643 0 0 0-.138-1.069 2.741 2.741 0 0 0-.449-1.019 1.765 1.765 0 0 0-1.344-.709zm-.021 2.955a.979.979 0 0 0 .013.138l3.758 23.338h-7.5l3.72-23.338a.979.979 0 0 0 .008-.138zM6 316.4h45.023a2.9 2.9 0 0 1 2.934 2.932v7.832a2.912 2.912 0 0 1-2.934 2.942H6a2.91 2.91 0 0 1-2.933-2.942v-7.832A2.9 2.9 0 0 1 6 316.4zm4.9 1.958a3.916 3.916 0 1 0 3.907 3.917 3.933 3.933 0 0 0-3.907-3.919zm9.782 0a3.916 3.916 0 1 0 3.917 3.917 3.932 3.932 0 0 0-3.922-3.919zm9.792 0a3.916 3.916 0 1 0 3.915 3.917 3.933 3.933 0 0 0-3.915-3.917zM10.9 320.316a1.958 1.958 0 1 1-1.958 1.958 1.936 1.936 0 0 1 1.958-1.958zm9.782 0a1.958 1.958 0 1 1-1.958 1.958 1.943 1.943 0 0 1 1.958-1.958zm9.792 0a1.958 1.958 0 1 1-1.959 1.958 1.943 1.943 0 0 1 1.954-1.958zm7.832.975v1.958h10.76v-1.958zM10.9 332.055h1.95v1.958H10.9zm33.271 0h1.959v1.958h-1.964z" transform="translate(13) translate(-1.106 -281.153)"/>
    </g>
</svg>
