<svg xmlns="http://www.w3.org/2000/svg" width="20" height="20" viewBox="0 0 20 20">
    <defs>
        <style>
            .cls-2{fill:#212126}
        </style>
    </defs>
    <g id="coffee" transform="translate(-37.646)">
        <path id="Контур_1266" d="M55.685 243.076a1.89 1.89 0 0 0-1.5-.731h-1.762V241H39.147v3.994a6.589 6.589 0 0 0 2.845 5.42h-2.84v1.172h13.266v-1.172h-2.84a6.646 6.646 0 0 0 1.562-1.514h1.286a3.271 3.271 0 0 0 3.178-2.481l.427-1.707a1.89 1.89 0 0 0-.346-1.632zm-9.854 7.338h-.092a5.426 5.426 0 0 1-5.42-5.42v-2.822h10.932v2.822a5.426 5.426 0 0 1-5.42 5.42zm9.063-5.99l-.427 1.707a2.1 2.1 0 0 1-2.041 1.594h-.6a6.553 6.553 0 0 0 .593-2.73v-1.477h1.763a.73.73 0 0 1 .708.907z" class="cls-2" transform="translate(0 -231.586)"/>
        <path id="Контур_1267" d="M161.748 4.621a1.933 1.933 0 0 0-1.931 1.931V7.9h1.172V6.551a.76.76 0 0 1 .759-.759h5.379a4.626 4.626 0 0 0 4.621-4.621V0h-1.172v1.172a3.453 3.453 0 0 1-3.449 3.449z" class="cls-2" transform="translate(-115.956)"/>
        <path id="Контур_1268" d="M92.132 6.724a3.453 3.453 0 0 1 3.449-3.449h5.379a1.933 1.933 0 0 0 1.931-1.931V0h-1.172v1.345a.76.76 0 0 1-.759.759h-5.379a4.626 4.626 0 0 0-4.621 4.621V7.9h1.172z" class="cls-2" transform="translate(-49.789)"/>
    </g>
</svg>
