<svg width="160" height="50" xmlns="http://www.w3.org/2000/svg" viewBox="0 0 160 50">
<g>
	<path fill="#538070" d="M18.5,16.7L25.7,9l8.9,6.2l-1.5,1.6c-1.7-1.2-3.7-1.9-5.7-2.1l8.6,7.4l-0.8,0.7c-2.3-1.5-4.9-2.3-7.6-2.2c-0.2,0-0.4,0-0.5,0l11.3,8l-2.2,2.4c-2.3-1.7-5-2.8-7.8-3.1l12.1,10.4l-1.1,1c-3.3-2.1-7.1-3.3-11-3.2c-4.8-0.1-9.5,1.7-13.1,4.9l-3-2.6l12-10.4c-3,0.3-5.8,1.5-8.1,3.4l-1-0.7l9.1-9.6c-2.1,0.5-4,1.5-5.6,2.9l-2.1-1.8l8.6-7.4c-2.1,0.2-4.1,1.1-5.8,2.4L18.5,16.7L18.5,16.7z M26.2,0c13.8,0,25,11.2,25,25s-11.2,25-25,25c-13.8,0-25-11.2-25-25c0,0,0,0,0,0C1.3,11.2,12.4,0,26.2,0z M82.2,10.9c-0.7-0.7-1.5-1.2-2.4-1.6c-0.8-0.4-1.8-0.6-2.7-0.6c-2.3-0.1-4.5,0.9-5.8,2.7c-1.4,1.9-2.1,4.2-2,6.5c0,0.6,0.1,1.2,0.1,1.8c0.1,0.6,0.2,1.2,0.3,1.8c0.3,1,0.7,2,1.4,2.8c0.7,0.8,1.5,1.5,2.5,2c1,0.5,2.1,0.7,3.2,0.7c1,0,2-0.2,2.9-0.5c1-0.4,1.9-0.9,2.7-1.5c0.2,0.7,0.3,1.4,0.6,2.1c-0.9,0.6-1.9,1.1-3,1.3c-1.2,0.3-2.4,0.4-3.6,0.4c-2.9,0.1-5.7-0.9-7.8-3c-2-2.2-3-5.1-2.8-8c0-1.5,0.3-3.1,0.9-4.5c0.6-1.4,1.4-2.6,2.5-3.6c1.1-0.9,2.3-1.6,3.6-2.1C74.4,7.2,75.8,7,77.3,7c1.1,0,2.2,0.1,3.2,0.4c1.1,0.2,2.1,0.6,3.1,1c-0.4,1-0.7,1.9-0.9,2.9l-0.1-0.1C82.4,11.1,82.3,11,82.2,10.9L82.2,10.9z M134.9,20.6c0-2.4,0.9-5.6,3.8-5.6c3.2,0,3.9,3.8,3.9,6.4c0,1.9-0.7,4.8-2.9,5.3c-0.4,0.1-0.8,0.1-1.2,0.1C135.5,26.8,134.8,23,134.9,20.6L134.9,20.6z M131.8,13.6c1.4-0.2,2.7,0.8,3,2.1c1-1.6,2.8-2.5,4.7-2.4c4,0,6.1,3.5,6.1,7.3c0,1-0.1,2.1-0.3,3.1c-0.7,2.9-3.3,4.9-6.2,4.8c-1.7,0.1-3.3-0.7-4.3-2.1V34h-3L131.8,13.6L131.8,13.6z M126.2,26.4c-1,1.4-2.7,2.2-4.5,2.1c-2.1,0-4.4-1.2-4.8-3.5c-0.1-0.9-0.2-1.7-0.2-2.6v-8.9h3.1l-0.3,8.2c0,1.6,0,3.4,1.6,4.3c1.6,0.9,3.6,0.3,4.5-1.3c0.2-0.4,0.3-0.8,0.4-1.2c0.1-0.5,0.2-1,0.2-1.6l0-8.4h2.9L129,28.4C126.7,28.4,126.2,26.9,126.2,26.4L126.2,26.4z M95,26.4c-1,1.4-2.7,2.2-4.5,2.1c-2.1,0-4.4-1.2-4.8-3.5c-0.1-0.9-0.2-1.7-0.2-2.6v-8.9h3.1l-0.3,8.2c0,1.6,0,3.4,1.6,4.3c1.6,0.9,3.6,0.3,4.5-1.3c0.2-0.4,0.3-0.8,0.4-1.2c0.1-0.5,0.2-1,0.2-1.6l0-8.4h2.9l-0.2,14.8C95.5,28.4,95,26.9,95,26.4L95,26.4z M107.4,27.1c-3.2,0-4.2-3.6-4.2-6.3c0-2.6,1-5.9,4.1-5.9c3.7,0,4.4,3.4,4.4,6.4C111.7,24.2,110.7,27.1,107.4,27.1L107.4,27.1z M102.3,15.7c1.4-1.5,3.4-2.4,5.5-2.4c4.4,0,7.1,3.3,7.1,7.6c0.1,2-0.6,3.9-1.9,5.3c-1.5,1.6-3.5,2.5-5.7,2.4c-1.9,0.1-3.8-0.7-5.2-2c-1.4-1.5-2.1-3.4-2-5.5c0-3.2,0.4-6.9,2.2-9.7c1.2-1.8,3-3.2,5.1-4c1.1-0.5,2.2-0.9,3.3-1.3c0.7-0.2,1.4-0.5,2.1-0.8l0.3-0.1c0.5,1.3-0.3,3.4-1.7,3.6c-2.6,0.9-5.7,1.6-7.5,3.8C103,13.7,102.5,14.7,102.3,15.7L102.3,15.7z M150.6,21.4h1.9c1.7,0,3.2,0.8,3.2,2.7s-1.2,2.7-3,2.7h-2.2L150.6,21.4L150.6,21.4z M74.8,41.3l0.7,0.2c-0.1,0.5-0.4,1-0.8,1.3c-0.4,0.3-0.9,0.5-1.4,0.5c-0.5,0-1-0.1-1.4-0.4c-0.4-0.2-0.7-0.6-0.8-1c-0.2-0.5-0.3-1-0.3-1.4c0-0.5,0.1-1,0.3-1.5c0.2-0.4,0.5-0.7,0.9-1c0.4-0.2,0.9-0.3,1.3-0.3c0.5,0,1,0.1,1.4,0.4c0.4,0.3,0.7,0.7,0.8,1.2l-0.7,0.2c-0.1-0.3-0.3-0.6-0.6-0.9c-0.3-0.2-0.6-0.3-0.9-0.3c-0.4,0-0.7,0.1-1.1,0.3c-0.3,0.2-0.5,0.5-0.6,0.8c-0.1,0.3-0.2,0.7-0.2,1c0,0.4,0.1,0.8,0.2,1.2c0.1,0.3,0.3,0.6,0.6,0.8c0.3,0.2,0.6,0.3,0.9,0.3c0.4,0,0.7-0.1,1-0.3C74.6,42.1,74.8,41.7,74.8,41.3L74.8,41.3z M81.9,41h1.9l-0.6-1.5c-0.2-0.5-0.3-0.8-0.4-1.1c-0.1,0.4-0.2,0.7-0.3,1L81.9,41L81.9,41z M80.3,43.2l2.1-5.4h0.8l2.2,5.4h-0.8L84,41.6h-2.3l-0.6,1.6H80.3L80.3,43.2z M90.7,43.2v-5.4h0.7V40h2.8v-2.2H95v5.4h-0.7v-2.5h-2.8v2.5H90.7L90.7,43.2z M101.9,41h1.9l-0.6-1.5c-0.2-0.5-0.3-0.8-0.4-1.1c-0.1,0.4-0.2,0.7-0.3,1L101.9,41L101.9,41z M100.3,43.2l2.1-5.4h0.8l2.2,5.4h-0.8l-0.6-1.6h-2.3l-0.6,1.6H100.3z M111.5,43.2v-4.8h-1.8v-0.6h4.3v0.6h-1.8v4.8H111.5L111.5,43.2z M119.6,40.6c0,0.6,0.2,1.1,0.5,1.5c0.7,0.7,1.9,0.7,2.7,0c0,0,0,0,0,0c0.4-0.4,0.6-1,0.5-1.6c0-0.4-0.1-0.8-0.2-1.2c-0.1-0.3-0.4-0.6-0.7-0.8c-0.3-0.2-0.6-0.3-1-0.3c-0.5,0-1,0.2-1.3,0.5C119.7,39.3,119.5,39.9,119.6,40.6L119.6,40.6z M118.9,40.6c0-0.8,0.2-1.5,0.7-2.1c0.5-0.5,1.2-0.8,1.9-0.8c0.5,0,1,0.1,1.4,0.4c0.4,0.2,0.7,0.6,0.9,1c0.2,0.5,0.3,0.9,0.3,1.4c0,0.5-0.1,1-0.3,1.5c-0.2,0.4-0.5,0.8-1,1c-0.4,0.2-0.9,0.3-1.3,0.3c-0.5,0-1-0.1-1.4-0.4c-0.4-0.2-0.7-0.6-0.9-1C119,41.5,118.9,41,118.9,40.6L118.9,40.6z M130.4,40.4h1.4c0.4,0,0.7-0.1,1-0.3c0.2-0.2,0.3-0.5,0.3-0.7c0-0.2-0.1-0.4-0.2-0.6c-0.1-0.2-0.3-0.3-0.5-0.3c-0.2,0-0.4-0.1-0.7,0h-1.4L130.4,40.4L130.4,40.4z M129.7,43.2v-5.4h2.1c0.3,0,0.6,0,0.8,0.1c0.2,0,0.5,0.1,0.7,0.3c0.2,0.1,0.3,0.3,0.4,0.5c0.3,0.6,0.2,1.4-0.3,1.9c-0.4,0.4-1,0.5-1.6,0.5h-1.4v2.2L129.7,43.2L129.7,43.2z M139.5,37.8h0.7v4.3l2.9-4.3h0.7v5.4h-0.7v-4.3l-2.9,4.3h-0.7L139.5,37.8L139.5,37.8z M152.4,36.5h0.5c0,0.3-0.1,0.5-0.3,0.7c-0.2,0.2-0.5,0.3-0.8,0.3c-0.3,0-0.5-0.1-0.8-0.2c-0.2-0.2-0.3-0.4-0.3-0.7h0.5c0,0.1,0.1,0.3,0.2,0.4c0.1,0.1,0.3,0.1,0.4,0.1c0.2,0,0.3,0,0.5-0.1C152.3,36.8,152.4,36.6,152.4,36.5L152.4,36.5z M149.6,37.8h0.7v4.3l2.9-4.3h0.7v5.4h-0.7v-4.3l-2.9,4.3h-0.7V37.8L149.6,37.8z M150.6,19.8h2.9c2.7,0,5.3,1.1,5.3,4.2c0,3-2.8,4.3-5.5,4.3h-5.6V13.6h2.9L150.6,19.8L150.6,19.8z"/>
</g>
<g>
	<path fill="#ffffff" d="M18.5,16.8l7.2-7.7l8.9,6.2L33.1,17c-1.7-1.2-3.7-1.9-5.7-2.1l8.6,7.4L35.2,23c-2.3-1.5-4.9-2.3-7.6-2.2c-0.2,0-0.4,0-0.5,0l11.3,8l-2.2,2.4c-2.3-1.7-5-2.8-7.8-3.1l12.1,10.4l-1.1,1c-3.3-2.1-7.1-3.3-11-3.2c-4.8-0.1-9.5,1.7-13.1,4.9l-3-2.6l12-10.4c-3,0.3-5.8,1.5-8.1,3.4l-1-0.7l9.1-9.6c-2.1,0.5-4,1.5-5.6,2.9l-2.1-1.8l8.6-7.4c-2.1,0.2-4.1,1.1-5.8,2.4L18.5,16.8L18.5,16.8z"/>
	<path fill="#ffffff" d="M107.4,27c-3.1,0-4.2-3.6-4.2-6.2c0-2.5,1-5.8,4.1-5.8c3.6,0,4.3,3.3,4.3,6.3C111.6,24.1,110.6,27,107.4,27L107.4,27z"/>
	<path fill="#ffffff" d="M138.7,27c-2.9,0-3.9-3.6-3.9-6.2c0-2.5,1-5.8,3.8-5.8c3.4,0,4,3.3,4,6.3C142.6,24.1,141.7,27,138.7,27L138.7,27z"/>
	<path fill="#ffffff" d="M150.4,21.3h1.9c1.7,0,3.2,0.8,3.2,2.7s-1.2,2.7-3,2.7h-2.2L150.4,21.3L150.4,21.3z"/>
</g>
</svg>
