<svg xmlns="http://www.w3.org/2000/svg" width="20" height="20" viewBox="0 0 20 20">
  <g transform="translate(-81.934)">
    <path d="M91.411 16.423c.019.019.04.037.061.055l.03.022.036.026.036.022.034.02.038.018.036.017.037.014.04.014.038.01.041.01.044.007.036.005a.839.839 0 0 0 .164 0l.036-.005.044-.007.041-.01.038-.01.04-.014.037-.014.036-.017.038-.018.034-.02.036-.022.038-.026.03-.022c.021-.017.041-.036.061-.055l5.833-5.833a.833.833 0 1 0-1.179-1.179l-4.411 4.411V.833a.833.833 0 0 0-1.667 0v12.988l-4.411-4.41a.833.833 0 0 0-1.179 1.179z"/>
    <path d="M97.834 469.333H86.167a.833.833 0 0 0 0 1.667h11.667a.833.833 0 0 0 0-1.667z" transform="translate(0 -451)"/>
  </g>
</svg>
