<svg xmlns="http://www.w3.org/2000/svg" viewBox="0 0 18 18">
	<g>
		<path d="M17.3,2.3H6.6C6.2,1.1,5,0.5,3.8,0.9C3.1,1.1,2.6,1.6,2.4,2.3H0.7C0.3,2.3,0,2.6,0,3s0.3,0.7,0.7,0.7h1.7C2.8,4.9,4,5.5,5.2,5.1c0.7-0.2,1.2-0.7,1.4-1.4h10.7C17.7,3.7,18,3.4,18,3C18,2.6,17.7,2.3,17.3,2.3z M4.4,3.8C4,3.8,3.6,3.4,3.6,3c0-0.4,0.4-0.8,0.8-0.8c0.4,0,0.8,0.4,0.8,0.8C5.2,3.4,4.9,3.8,4.4,3.8z"/>
		<path d="M17.3,8.3h-1.7c-0.4-1.2-1.6-1.8-2.8-1.4c-0.7,0.2-1.2,0.7-1.4,1.4H0.7C0.3,8.3,0,8.6,0,9s0.3,0.7,0.7,0.7h10.7c0.4,1.2,1.6,1.8,2.8,1.4c0.7-0.2,1.2-0.7,1.4-1.4h1.7C17.7,9.7,18,9.4,18,9S17.7,8.3,17.3,8.3L17.3,8.3z M13.5,9.8c-0.4,0-0.8-0.4-0.8-0.8s0.4-0.8,0.8-0.8c0.4,0,0.8,0.4,0.8,0.8C14.3,9.4,13.9,9.8,13.5,9.8L13.5,9.8z"/>
		<path d="M17.3,14.3H9.6c-0.4-1.2-1.6-1.8-2.8-1.4c-0.7,0.2-1.2,0.7-1.4,1.4H0.7C0.3,14.3,0,14.6,0,15s0.3,0.7,0.7,0.7l0,0h4.7c0.4,1.2,1.6,1.8,2.8,1.4c0.7-0.2,1.2-0.7,1.4-1.4h7.7c0.4,0,0.7-0.3,0.7-0.7C18,14.6,17.7,14.3,17.3,14.3z M7.5,15.8c-0.4,0-0.8-0.4-0.8-0.8s0.4-0.8,0.8-0.8c0.4,0,0.8,0.4,0.8,0.8l0,0C8.3,15.5,7.9,15.8,7.5,15.8L7.5,15.8z"/>
	</g>
</svg>
