<svg xmlns="http://www.w3.org/2000/svg" xmlns:xlink="http://www.w3.org/1999/xlink" width="1075" height="980" viewBox="0 0 1075 980">
    <defs>
        <linearGradient id="linear-gradient" x1="-.166" x2="1.344" y1=".76" y2="-.522" gradientUnits="objectBoundingBox">
            <stop offset="0" stop-color="#38a282"/>
            <stop offset=".448" stop-color="#26716a"/>
            <stop offset=".803" stop-color="#1b515b"/>
            <stop offset="1" stop-color="#174656"/>
        </linearGradient>
        <linearGradient id="linear-gradient-2" x1=".506" x2=".506" y1="-.032" y2="2.783" gradientUnits="objectBoundingBox">
            <stop offset="0" stop-color="#fcfbe9"/>
            <stop offset=".111" stop-color="#eef5e2"/>
            <stop offset=".319" stop-color="#cce5cf"/>
            <stop offset=".599" stop-color="#93cbb2"/>
            <stop offset=".938" stop-color="#46a889"/>
            <stop offset="1" stop-color="#38a282"/>
        </linearGradient>
        <linearGradient id="linear-gradient-3" x1=".5" x2=".5" y1="-.044" y2=".947" gradientUnits="objectBoundingBox">
            <stop offset="0" stop-color="#38a282"/>
            <stop offset=".31" stop-color="#7c9f81" stop-opacity=".631"/>
            <stop offset=".631" stop-color="#bb9d80" stop-opacity=".294"/>
            <stop offset=".871" stop-color="#e39c80" stop-opacity=".078"/>
            <stop offset="1" stop-color="#f29c80" stop-opacity="0"/>
        </linearGradient>
        <linearGradient id="linear-gradient-4" x1=".5" x2=".5" y1="-.203" y2="1.459" gradientUnits="objectBoundingBox">
            <stop offset="0" stop-color="#fcfbe9"/>
            <stop offset="1" stop-color="#fed98f"/>
        </linearGradient>
        <linearGradient id="linear-gradient-5" x1=".74" x2="-.77" y1="1.338" y2="-4.381" gradientUnits="objectBoundingBox">
            <stop offset="0" stop-color="#0d232b"/>
            <stop offset=".101" stop-color="#153743"/>
            <stop offset=".253" stop-color="#1f5062"/>
            <stop offset=".414" stop-color="#276479"/>
            <stop offset=".583" stop-color="#2d728a"/>
            <stop offset=".769" stop-color="#307a94"/>
            <stop offset="1" stop-color="#327d98"/>
        </linearGradient>
        <linearGradient id="linear-gradient-6" x1=".481" x2=".553" y1=".934" y2="-.694" xlink:href="#linear-gradient-5"/>
        <linearGradient id="linear-gradient-7" x1=".5" x2=".5" y1=".884" y2=".121" gradientUnits="objectBoundingBox">
            <stop offset="0" stop-color="#174656"/>
            <stop offset=".269" stop-color="#1c5063"/>
            <stop offset=".767" stop-color="#2a6d85"/>
            <stop offset="1" stop-color="#327d98"/>
        </linearGradient>
        <linearGradient id="linear-gradient-8" x1=".5" x2=".5" y1=".939" y2=".04" gradientUnits="objectBoundingBox">
            <stop offset="0" stop-color="#174656"/>
            <stop offset=".266" stop-color="#1a4c63"/>
            <stop offset=".758" stop-color="#255e85"/>
            <stop offset="1" stop-color="#2b6999"/>
        </linearGradient>
        <linearGradient id="linear-gradient-9" x1=".025" x2="1.007" y1=".5" y2=".5" xlink:href="#linear-gradient-7"/>
        <linearGradient id="linear-gradient-10" x1="1.052" x2="0" y1=".5" y2=".5" gradientUnits="objectBoundingBox">
            <stop offset="0" stop-color="#fcfbe9"/>
            <stop offset=".109" stop-color="#eef2e3"/>
            <stop offset=".311" stop-color="#ccddd5"/>
            <stop offset=".584" stop-color="#93b9bf"/>
            <stop offset=".915" stop-color="#4689a0"/>
            <stop offset="1" stop-color="#327d98"/>
        </linearGradient>
        <linearGradient id="linear-gradient-11" x1=".067" x2=".838" y1=".5" y2=".5" xlink:href="#linear-gradient-7"/>
        <linearGradient id="linear-gradient-12" x1="1.306" x2="-.313" y1=".5" y2=".5" xlink:href="#linear-gradient-10"/>
        <linearGradient id="linear-gradient-13" x1=".935" x2="-.686" y1=".45" y2=".239" gradientUnits="objectBoundingBox">
            <stop offset="0" stop-color="#fbc14b"/>
            <stop offset="1" stop-color="#fed98f"/>
        </linearGradient>
        <linearGradient id="linear-gradient-14" x1=".453" x2=".453" y1=".069" y2=".953" gradientUnits="objectBoundingBox">
            <stop offset="0" stop-color="#fbc14b"/>
            <stop offset=".236" stop-color="#edaf4b"/>
            <stop offset=".727" stop-color="#d58f4b"/>
            <stop offset="1" stop-color="#cc844b"/>
        </linearGradient>
        <linearGradient id="linear-gradient-15" x1="-.187" x2="1.112" y1="1.366" y2="-.328" gradientUnits="objectBoundingBox">
            <stop offset="0" stop-color="#fbc14b"/>
            <stop offset=".299" stop-color="#fcc963"/>
            <stop offset=".75" stop-color="#fdd483"/>
            <stop offset="1" stop-color="#fed98f"/>
        </linearGradient>
        <linearGradient id="linear-gradient-16" x1="-2.104" x2=".048" y1=".994" y2=".994" gradientUnits="objectBoundingBox">
            <stop offset="0" stop-color="#cc844b"/>
            <stop offset=".099" stop-color="#be7b48"/>
            <stop offset=".514" stop-color="#8b5c3f"/>
            <stop offset=".827" stop-color="#6b493a"/>
            <stop offset="1" stop-color="#604238"/>
        </linearGradient>
        <linearGradient id="linear-gradient-17" x1="-.725" x2="1.294" y1=".88" y2=".88" xlink:href="#linear-gradient-16"/>
        <linearGradient id="linear-gradient-18" x1="-.98" x2=".063" y1=".522" y2=".522" xlink:href="#linear-gradient-16"/>
        <linearGradient id="linear-gradient-19" x1=".325" x2=".325" y1=".115" y2="1.047" xlink:href="#linear-gradient-14"/>
        <linearGradient id="linear-gradient-20" x1="-.844" x2="1.409" y1=".938" y2=".15" xlink:href="#linear-gradient-13"/>
        <linearGradient id="linear-gradient-21" x1=".002" x2="1.061" y1=".5" y2=".5" gradientUnits="objectBoundingBox">
            <stop offset="0" stop-color="#cc844b"/>
            <stop offset=".315" stop-color="#9e6843"/>
            <stop offset=".605" stop-color="#7c533d"/>
            <stop offset=".843" stop-color="#674639"/>
            <stop offset="1" stop-color="#604238"/>
        </linearGradient>
        <linearGradient id="linear-gradient-22" x1="1.076" x2="-.294" y1="-.514" y2="1.896" xlink:href="#linear-gradient-21"/>
        <linearGradient id="linear-gradient-23" x1=".5" x2=".5" y1="-.141" y2=".967" gradientUnits="objectBoundingBox">
            <stop offset="0" stop-color="#37a081"/>
            <stop offset=".578" stop-color="#256d68"/>
            <stop offset="1" stop-color="#174656"/>
        </linearGradient>
        <linearGradient id="linear-gradient-24" x1=".5" x2=".5" y1="-.095" y2=".992" xlink:href="#linear-gradient-23"/>
        <clipPath id="clip-path">
            <path id="Контур_1762" d="M225.953 162.131L76.969 420.176c-12.963 22.454 3.242 50.518 29.169 50.518H404.1c25.927 0 42.133-28.065 29.169-50.518L284.288 162.131c-12.963-22.454-45.371-22.454-58.335 0z" class="cls-1" transform="translate(-72.407 -145.291)"/>
        </clipPath>
        <clipPath id="clip-path-2">
            <path id="Контур_1768" d="M336.184 258.574c-79.746-53.192-176.4-32.09-214.552-11.449 0 0 13.382 4.123 18.262 31.567s5.487 54.881-9.76 78.972c0 0 1.829 38.12 21.346 86.3h132.288s6.147-37.2 29.322-65.863 37.201-79.893 23.094-119.527z" class="cls-1" transform="translate(-121.632 -225.046)"/>
        </clipPath>
        <clipPath id="clip-path-3">
            <path id="Контур_1780" d="M334.029 378.424h-152.85a13.359 13.359 0 0 1-12.882-16.9l22.915-83.411a13.356 13.356 0 0 1 12.882-9.818h152.847a13.358 13.358 0 0 1 12.882 16.9L346.911 368.6a13.358 13.358 0 0 1-12.882 9.824z" class="cls-1" transform="translate(-167.812 -268.297)"/>
        </clipPath>
        <style>
            .cls-1{fill:none}.cls-9{fill:#212126}.cls-13{fill:#174656;opacity:.3;mix-blend-mode:multiply;isolation:isolate}.cls-14{fill:#ebb7a7}.cls-16{fill:#5f5f6d}
        </style>
    </defs>
    <g id="illustration_404_d" transform="translate(-40.77 -92.461)">
        <path id="Контур_1753" fill="url(#linear-gradient)" d="M348.068 1072.461C295 1061.252 138.339 1038.035 96.516 884.717c-14.907-54.641-.507-119.026 40.865-155.671 36.789-32.587 88.593-39.537 136.561-35.43s94.9 17.788 142.929 20.927 97.41-8.72 134.814-40.807c73.121-62.724 56.5-181.926 118.358-246.911 64.437-67.689 167.729-41.853 245.354-92.011 42.333-27.356 40.374-78.346 48.374-102.346s50-128 152-140.007H40.77l.01 980z"/>
        <g id="Сгруппировать_1391" transform="translate(140.409 264.103)">
            <path id="Контур_1754" fill="url(#linear-gradient-2)" d="M212.428 225.146c-4.519-.439-9.792-3.632-9.376-8.155.237-2.573 2.5-4.594 4.961-5.367s5.117-.556 7.69-.331q17.871 1.574 35.739 3.142c2.437.214 5.14.354 7.063-1.16 3.288-2.586 1.829-8.178-1.394-10.848s-7.521-3.584-11.193-5.591c-7.914-4.321-12.327-14.042-10.809-22.931s8.619-16.456 17.275-18.987c11.976-3.5 26.057 3.229 30.849 14.75 2.437 5.858 2.622 12.395 4.415 18.48S293.7 200.4 300 201.179c4.721.585 9.247-2.027 12.9-5.072s6.946-6.657 11.222-8.74 10.052-2.157 13.2 1.407c2.885 3.265 2.654 8.392 5.319 11.842 2.563 3.32 7.281 4.289 11.42 3.606s7.9-2.716 11.719-4.448c4.961-2.251 10.406-4.068 15.783-3.187s10.514 5.228 10.611 10.676c.081 4.454-3.181 8.438-7.128 10.5s-8.5 2.583-12.941 3c-27.025 2.511-49.027-1.556-81.305-.075-9.578.442 6.761 2.976 7.707 6.748 2.768 11.017-38.939 10.13-36.366 2.856 4.545-7.55-16.82-1.972-49.713-5.146z" transform="translate(224.504 -125.73)"/>
            <path id="Контур_1755" fill="url(#linear-gradient-3)" d="M455.8 591.883c-.913-15.611 13.9-27.132 27.444-34.946s29.081-17.122 31.31-32.6c2.29-15.93-11.089-31.479-7.343-47.129 2.563-10.725 12.3-17.85 20.111-25.631a89.9 89.9 0 0 0-23.773-144.361c-12.993-6.391-27.974-9.575-42.133-6.527s-27.194 13.015-31.716 26.775c-4.087 12.424-1.049 25.9-.549 38.968s-2.992 28.214-14.715 34.02c-16 7.924-33.818-6.826-44.072-21.446a222.821 222.821 0 0 1-40.017-120.991c-.478-17.525 1.114-35.241-2.131-52.467s-12.453-34.553-28.37-41.9c-20.712-9.562-44.748.354-65.337 10.176-21.879 10.436-45.892 23.22-53.283 46.3-8.272 25.845 8.428 53.387 29.049 71.029s45.82 29.962 63.881 50.219 26.674 53.419 8.889 73.917c-16.209 18.678-44.839 17.756-69.544 16.625s-54.306 1.741-66.181 23.432c-11.42 20.867.78 46.754 15.61 65.354a234.826 234.826 0 0 0 93.011 70.07z" transform="translate(89.098 -112.732)"/>
            <path id="Контур_1756" fill="none" stroke="#0d232b" stroke-dasharray="1.935" stroke-miterlimit="10" stroke-width="0.484px" d="M438.5 714.5c154.741 33.208 169.875-137.278 97.462-196.325-11.43-9.318-27.688-12.051-41.593-8.08s-25.69 17.964-24.595 33.338c1.475 20.709 25.2 33.175 44.066 28.35s32.9-21.333 44.059-38.2c59.817-90.454 68.153-217.04 20.858-316.731-17.856-37.636-50.95-75.181-89.87-69.323-39.234 5.907-60.258 51.759-69.68 92.794s-16.242 87.481-47.734 112.9c-11.251 9.084-26.97 14.5-39.6 7.486-14.633-8.119-18.366-28.065-22.73-45.008-7.294-28.321-21.365-55.4-43.006-73.657s-51.392-26.612-77.478-17.8c-41.791 14.11-62.286 67.679-56.239 114.224s32.054 87.254 58.257 125.231" transform="translate(63.357 -141.624)"/>
            <path id="Контур_1757" fill="none" stroke="#0d232b" stroke-dasharray="1.94" stroke-miterlimit="10" stroke-width="0.485px" d="M301.078 252.066c-32.126 42.4-90.383 58.608-132.064 60.252C88.388 315.5 49.066 386.375 84.547 439.7c28.178 42.347 89.194 24.25 82.748 0-6.222-23.405-62.919-13.246-54.082 33.178 8.613 45.232 79.33 72.4 164.1 33.646" transform="translate(-71.438 94.842)"/>
            <g id="Сгруппировать_1372" transform="translate(3.147)">
                <path id="Контур_1758" fill="#d4bb96" d="M225.953 162.131L76.969 420.176c-12.963 22.454 3.242 50.518 29.169 50.518H404.1c25.927 0 42.133-28.065 29.169-50.518L284.288 162.131c-12.963-22.454-45.371-22.454-58.335 0z" transform="translate(-72.407 -145.291)"/>
                <path id="Контур_1759" fill="url(#linear-gradient-4)" d="M88.947 428.67a8.844 8.844 0 0 1-7.661-13.27L230.27 157.356a8.845 8.845 0 0 1 15.319 0L394.573 415.4a8.844 8.844 0 0 1-7.661 13.266z" transform="translate(-55.215 -128.101)"/>
                <path id="Контур_1760" d="M146.786 296.809a22.834 22.834 0 0 1-22.811-21.839l-3.194-73.4a26.031 26.031 0 0 1 26-27.161 26.031 26.031 0 0 1 26 27.161l-3.194 73.4a22.829 22.829 0 0 1-22.801 21.839zm0 10.377a26.029 26.029 0 1 0 26.031 26.027 26.029 26.029 0 0 0-26.031-26.027z" class="cls-9" transform="translate(36.329 -79.816)"/>
            </g>
            <g id="Сгруппировать_1378" transform="translate(45.793 191.251)">
                <path id="Контур_1766" fill="#3b3b4b" d="M336.184 258.574c-79.746-53.192-176.4-32.09-214.552-11.449 0 0 13.382 4.123 18.262 31.567s5.487 54.881-9.76 78.972c0 0 1.829 38.12 21.346 86.3h132.288s6.147-37.2 29.322-65.863 37.201-79.893 23.094-119.527z" transform="translate(-4.347 -157.174)"/>
                <g id="Сгруппировать_1377" transform="translate(117.285 67.872)">
                    <g id="Сгруппировать_1376" clip-path="url(#clip-path-2)">
                        <path id="Контур_1767" d="M174.059 285.7a1 1 0 0 0-.962-.718h-.7a.994.994 0 0 0 .994-.994v-.919a.994.994 0 0 0-.994-.994h-2.457l-.634-5.588a1 1 0 0 0-1-.89h-40.5a1 1 0 0 0-1 .89l-.634 5.588h-2.463a.994.994 0 0 0-.994.994v.919a.994.994 0 0 0 .994.994h-.7a1 1 0 0 0-.962.718l-.393 1.306a.469.469 0 0 0 .448.6h1.917l1.767 17.531h-1.771l3.353 30.212h1.465l1.641 16.3a1.43 1.43 0 0 0 1.42 1.283h32.308a1.427 1.427 0 0 0 1.42-1.283l1.644-16.3h1.462l3.353-30.212h-1.761l1.767-17.531H174a.469.469 0 0 0 .448-.6z" class="cls-13" transform="translate(-121.605 -111.358)"/>
                    </g>
                </g>
                <path id="Контур_1769" d="M232.073 244.492c6.141-1.6 3.3-9.614 0-18.165s-15.059-24.4-36.434-21.908-36.872 24.4-34.023 35.8 6.592 16.388 20.131 18.7 50.326-14.427 50.326-14.427z" class="cls-9" transform="translate(84.815 -204.156)"/>
                <path id="Контур_1770" d="M179.016 219.1s-18.88 16.388-26.122 37.665c-6.946 20.41 18.818 45.2 27.012 45.164 7.323-.029 16.349-5.094 21.2-17.99s-13.36-63.592-13.36-63.592z" class="cls-14" transform="translate(63.318 -170.559)"/>
                <path id="Контур_1771" fill="#ffcebe" d="M172.736 229.581c-.741-9.591-4.809-11.933-8.548-9.263s-4.99 10.689-3.743 15.676 3.743 6.768 6.946 4.1c0 0 3.385 6.946 3.564 9.441s-3.74 14.6 3.564 26.541a30.289 30.289 0 0 0 21.729 14.607c3.922.711 12.827-6.413 17.635-12.291s24.049-34.023 20.842-52.906c0 0-5.877-8.015-25.293-12.824s-11.349 7.619-18.883 14.429c-9.262 8.367-17.531 6.148-17.813 2.49z" transform="translate(81.889 -187.458)"/>
                <path id="Контур_1772" d="M212.336 261.16c-3.028 2.138-3.028-4.8-6.592-8.278s-10.865-3.3-17.814-3.122-8.548.89-9.974-1.78-4.451-8.73-4.1-11.043 2.316-5.166 1.959-6.771-5.7-10.686-5.7-10.686-6.1 8.587-9.2 13.912-.776 28.126 5.455 40.417 18.53 13.891 25.656 11.575 25.192-23.51 29.786-34.822c.001 0-6.448 8.46-9.476 10.598zm-14.965 7.661c-1.6 0-10.332-3.564-11.755-4.633s-2.138-7.3-2.138-7.3 10.933-.179 15 0 6.556 8.194 6.556 8.194-6.058 3.739-7.663 3.739z" class="cls-9" transform="translate(80.945 -169.695)"/>
                <path id="Контур_1773" d="M127.747 364.957s-9.354-53.786-4.149-58.995 8.574-15.312 5.819-22.892-1.225-13.548 1.836-17.837 4.9-14.393-.916-15-7.749 8.912-7.138 12.876-2.745 8.538-5.185 4.269-7.317-14.331-7.317-14.331c1.218-3.964 2.135-18.906-1.527-20.127s-6.4 3.662-6.4 3.662-1.218-26.833-3.048-27.444-6.4 2.745-7.622 9.146-4.88 17.993-4.88 21.956 5.627 19.65 5.874 20.062-1.982 11.56-1.982 12.385.071 4.753-2.976 37.022c-1.946 20.592-4.38 62.832-.663 94.84 15.267 9.741 40.274-12.008 40.274-39.592z" class="cls-14" transform="translate(-85.533 -193.12)"/>
                <path id="Контур_1774" d="M296.28 256.239s6.709-10.8 6.4-14.243-1.218-5.578-6.1-6.8c0 0 .624-9.347-3.009-10.67s-6.937 4.019-6.937 4.019-4.951-3.246-8.363 3.411-9.363 25.361-12.336 28.25S252.9 276.59 249.7 275.677s-5.26-5.946-5.487-12.349-6.634-15.322-12.122-12.349 2.973 11.206 3.658 21.04 0 11.7 4.347 20.943 8 19.305 8 19.305-33.617 59.69-37.646 55.054c-14.643 13.34-9.76 59.713 14.049 63.241 22.418-20.056 48.491-65.047 60.19-111.316 16.165-63.923 11.591-63.007 11.591-63.007z" class="cls-14" transform="translate(176.818 -158.809)"/>
                <path id="Контур_1775" d="M219.739 263.409c-4.88-27.444-18.262-31.567-18.262-31.567-54.219 29.328-75.07 81.887-75.07 81.887 0 27.584-25.007 49.332-40.277 39.589 2.109 18.155 6.186 33.032 13.467 38.77 20.127 15.858 75.012-18.906 110.383-49.706 15.247-24.092 14.636-51.529 9.759-78.973z" class="cls-16" transform="translate(-84.192 -141.891)"/>
                <path id="Контур_1776" d="M259.4 342.478c-9.887-11.384-30.846-90.708-55.437-107.112 14.107 39.634.081 90.86-23.094 119.523-.153.189-.3.38-.445.569 14.663 28.308 47.373 57.8 69.97 61.025 6.482.929 14.5-3.112 23.055-10.764-23.809-3.529-28.692-49.901-14.049-63.241z" class="cls-16" transform="translate(127.874 -133.966)"/>
            </g>
            <g id="Сгруппировать_1381" transform="translate(267.087 399.642)">
                <path id="Контур_1777" fill="url(#linear-gradient-5)" d="M227.608 308.414H160.6a6.958 6.958 0 0 1-6.956-6.956 3.173 3.173 0 0 1 3.174-3.174h70.788a3.175 3.175 0 0 1 3.174 3.174v3.782a3.175 3.175 0 0 1-3.172 3.174z" transform="translate(-153.645 -200.857)"/>
                <path id="Контур_1778" fill="url(#linear-gradient-6)" d="M334.029 378.424h-152.85a13.359 13.359 0 0 1-12.882-16.9l22.915-83.411a13.356 13.356 0 0 1 12.882-9.818h152.847a13.358 13.358 0 0 1 12.882 16.9L346.911 368.6a13.358 13.358 0 0 1-12.882 9.824z" transform="translate(-121.784 -268.297)"/>
                <g id="Сгруппировать_1380" transform="translate(46.027)">
                    <g id="Сгруппировать_1379" clip-path="url(#clip-path-3)">
                        <path id="Контур_1779" d="M452.069 306.05a33.987 33.987 0 0 0-12.525-8.005 28.435 28.435 0 0 0-10.276-1.547l-51.808-3.363c-16.277.562-32.2 15.1-41.6 38.7l-26.96-1.751a9.087 9.087 0 1 0-1.176 18.136l22.756 1.475a135.814 135.814 0 0 0-3.035 35.83l-20.273-1.316a123.666 123.666 0 0 0-6.18-36.015c-11.134-33.809-36-60.382-59.216-59.164a28.515 28.515 0 0 0-10.107 2.4l-49.313 16.238c-5.946 2.638-10.962 7.372-14.893 13.659-27.847 15.234-54.475 45.524-40.924 86.676 13.093 39.764 50.343 49.075 81.217 45.784 8 3.509 16.027 4.259 23.337 1.881l49.307-16.229a29.544 29.544 0 0 0 9.243-5.023c8.551-6.787 13.941-18.337 16.255-32.074l23.886 1.55c5.663 26.573 20.377 43.559 37.584 44.735l51.808 3.363a29.532 29.532 0 0 0 10.452-1.205 37.188 37.188 0 0 0 11.761-6.124c28.89-4.11 65.84-22.142 68.615-64.921 2.853-43.904-25.182-66.169-57.935-73.69z" class="cls-13" transform="translate(-268.83 -221.749)"/>
                    </g>
                </g>
            </g>
            <g id="Сгруппировать_1383" transform="translate(156.62 429.861)">
                <g id="Сгруппировать_1382">
                    <rect id="Прямоугольник_2021" width="50.677" height="2.905" fill="url(#linear-gradient-7)" rx=".306" transform="translate(1.075 6.479)"/>
                    <path id="Контур_1781" fill="url(#linear-gradient-8)" d="M172.452 282.511l-.393-1.306a1 1 0 0 0-.962-.718h-50.079a1 1 0 0 0-.962.718l-.393 1.306a.469.469 0 0 0 .448.6H172a.469.469 0 0 0 .452-.6z" transform="translate(-119.644 -271.101)"/>
                    <path id="Контур_1782" fill="url(#linear-gradient-9)" d="M164.8 284.076h-43.761l.634-5.588a1 1 0 0 1 1-.89h40.5a1 1 0 0 1 1 .89z" transform="translate(-116.507 -277.598)"/>
                    <path id="Контур_1783" fill="url(#linear-gradient-10)" d="M168.442 281.279l-6.459 64.1a1.43 1.43 0 0 1-1.42 1.283h-32.307a1.427 1.427 0 0 1-1.42-1.283l-6.459-64.1z" transform="translate(-117.996 -269.32)"/>
                    <path id="Контур_1784" fill="url(#linear-gradient-11)" d="M168.444 286.691L165.09 316.9h-41.36l-3.354-30.211z" transform="translate(-117.996 -257.148)"/>
                    <path id="Контур_1785" fill="url(#linear-gradient-12)" d="M148.776 299.948a12.411 12.411 0 1 1-12.411-12.411 12.412 12.412 0 0 1 12.411 12.411z" transform="translate(-109.951 -255.246)"/>
                </g>
            </g>
            <g id="Сгруппировать_1386" transform="translate(163.928 483.133)">
                <path id="Контур_1786" fill="url(#linear-gradient-13)" d="M183.641 301.632c-32.22 10.611-74.476 44.495-58.1 94.2s70.489 51.85 102.706 41.242z" transform="translate(-121.894 -276.818)"/>
                <path id="Контур_1787" fill="url(#linear-gradient-14)" d="M216.332 294.035a28.515 28.515 0 0 0-10.107 2.4l-49.313 16.238c-21.814 9.675-31.736 46.863-17.509 90.061s43.666 65.288 66.246 57.939l49.313-16.238a29.652 29.652 0 0 0 9.247-5.02c18.717-14.864 22.47-52.415 11.339-86.221s-36.005-60.377-59.216-59.159z" transform="translate(-97.451 -293.995)"/>
                <g id="Сгруппировать_1385" transform="translate(91.698 6.099)">
                    <path id="Контур_1788" fill="url(#linear-gradient-15)" d="M232.887 350.374c10.179 30.907 7.226 65.086-9.195 78.446-20.212 16.446-52.438-3.769-67.315-48.946s-1.725-82.891 23.542-83.979c20.527-.887 42.789 23.568 52.968 54.479z" transform="translate(-150.117 -295.872)"/>
                    <g id="Сгруппировать_1384" transform="translate(33.544 31.17)">
                        <path id="Контур_1789" fill="url(#linear-gradient-16)" d="M177.85 329.04c1.839 5.591 1 11.531-1.949 13.321-3.051 1.845-7.183-1.417-9.136-7.343s-.89-11.989 2.274-13.493c3.061-1.456 6.969 1.927 8.811 7.515z" transform="translate(-148.43 -270.109)"/>
                        <path id="Контур_1790" fill="url(#linear-gradient-17)" d="M173.432 314.515c1.842 5.588.8 10.884-2.43 11.852-3.33 1-7.693-2.97-9.646-8.9s-.66-11.28 2.784-11.937c3.336-.63 7.453 3.397 9.292 8.985z" transform="translate(-160.442 -305.466)"/>
                    </g>
                </g>
            </g>
            <g id="Сгруппировать_1387" transform="translate(336.755 487.273)">
                <path id="Контур_1791" fill="url(#linear-gradient-18)" d="M250.1 383.117l-66.516-4.317a9.083 9.083 0 0 1-8.477-9.653 9.084 9.084 0 0 1 9.653-8.48l66.513 4.315a9.086 9.086 0 0 1 8.48 9.656 9.087 9.087 0 0 1-9.653 8.479zm13.162-62.49a9.086 9.086 0 0 0-8.48-9.653l-66.513-4.318a9.089 9.089 0 0 0-9.656 8.48 9.089 9.089 0 0 0 8.48 9.656l66.513 4.315a9.087 9.087 0 0 0 9.652-8.48z" transform="translate(-175.088 -269.703)"/>
                <path id="Контур_1792" fill="url(#linear-gradient-19)" d="M297.073 300.178a28.428 28.428 0 0 0-10.273-1.547l-51.811-3.363c-23.847.825-46.944 31.612-49.888 77s16.112 76.877 39.8 78.495l51.808 3.363a29.535 29.535 0 0 0 10.452-1.205c22.918-6.79 40.43-40.219 42.734-75.74s-10.836-69.459-32.822-77.003z" transform="translate(-153.248 -295.269)"/>
                <path id="Контур_1793" fill="url(#linear-gradient-20)" d="M249.839 298.435c-22.106-1.433-43.832 27.333-46.632 70.457-2.674 41.21 15.423 70.281 37.409 71.708 28.406 1.845 82.725-13.513 86.114-65.733s-36.922-73.839-76.891-76.432z" transform="translate(-112.441 -288.263)"/>
            </g>
            <g id="Сгруппировать_1390" transform="translate(524.163 387.507)">
                <g id="Сгруппировать_1388" transform="translate(0 56.504)">
                    <path id="Контур_1794" fill="url(#linear-gradient-21)" d="M290.343 341.652H240.03a2.428 2.428 0 0 1-2.42-2.258l-3.695-53.294a2.426 2.426 0 0 1 2.417-2.6h57.7a2.427 2.427 0 0 1 2.42 2.6l-3.7 53.293a2.425 2.425 0 0 1-2.409 2.259z" transform="translate(-230.21 -278.464)"/>
                    <rect id="Прямоугольник_2022" width="69.952" height="18.583" fill="url(#linear-gradient-22)" rx=".725"/>
                </g>
                <g id="Сгруппировать_1389" transform="translate(14.966)">
                    <path id="Контур_1795" fill="url(#linear-gradient-23)" d="M261.426 321.065h-24.049v-44.479a12.024 12.024 0 0 1 12.023-12.024 12.024 12.024 0 0 1 12.024 12.024z" transform="translate(-237.377 -264.562)"/>
                    <path id="Контур_1796" fill="url(#linear-gradient-24)" d="M262.18 306.647h-18.038v-26.655a9.02 9.02 0 0 1 9.019-9.019 9.02 9.02 0 0 1 9.019 9.019z" transform="translate(-222.163 -250.144)"/>
                </g>
            </g>
        </g>
    </g>
</svg>
