<svg width="30" height="30" xmlns="http://www.w3.org/2000/svg" viewBox="0 0 512 512">
	<path fill="#d4bb96" d="M433,438.6l-49.2-30.8C441.9,367.4,480,300.2,480,224C480,100.3,379.7,0,256,0S32,100.3,32,224c0,76.2,38.1,143.4,96.2,183.9L79,438.6c-9.3,5.9-15,16.1-15,27.1V480c0,17.7,14.3,32,32,32h320c17.7,0,32-14.3,32-32v-14.3C448,454.7,442.3,444.5,433,438.6L433,438.6z M64,224c0-106,86-192,192-192s192,86,192,192s-86,192-192,192S64,330,64,224z M416,480H96v-14.3l63.6-39.7c60.9,29.4,131.9,29.4,192.8,0l63.6,39.7V480z M416,224c0-88.4-71.6-160-160-160S96,135.6,96,224s71.6,160,160,160S416,312.4,416,224z M128,224c0-70.7,57.3-128,128-128s128,57.3,128,128s-57.3,128-128,128C185.3,351.9,128.1,294.7,128,224z M272,144c0-8.8-7.2-16-16-16c-53,0.1-95.9,43-96,96c0,8.8,7.2,16,16,16s16-7.2,16-16c0-35.3,28.7-64,64-64C264.8,160,272,152.8,272,144z"/>
</svg>
