<?xml version="1.0" standalone="no"?>
<!DOCTYPE svg PUBLIC "-//W3C//DTD SVG 20010904//EN"
 "http://www.w3.org/TR/2001/REC-SVG-20010904/DTD/svg10.dtd">
<svg version="1.0" xmlns="http://www.w3.org/2000/svg"
 width="700.000000pt" height="700.000000pt" viewBox="0 0 700.000000 700.000000"
 preserveAspectRatio="xMidYMid meet">
<metadata>
Created by potrace 1.11, written by Peter Selinger 2001-2013
</metadata>
<g transform="translate(0.000000,700.000000) scale(0.100000,-0.100000)"
fill="#000000" stroke="none">
<path d="M3215 6989 c-1004 -86 -1899 -579 -2513 -1387 -373 -489 -613 -1100
-684 -1737 -17 -154 -17 -585 0 -730 44 -370 129 -694 269 -1020 276 -645 764
-1212 1365 -1586 447 -278 924 -443 1483 -511 130 -16 600 -16 730 0 451 55
818 163 1195 351 729 364 1312 973 1639 1714 144 325 238 675 283 1052 16 139
16 595 0 730 -108 889 -477 1619 -1122 2217 -507 471 -1171 785 -1865 882
-249 35 -546 45 -780 25z m788 -1661 c309 -216 585 -408 614 -427 29 -20 52
-39 53 -42 0 -8 -189 -212 -201 -217 -4 -2 -32 13 -63 33 -83 53 -240 129
-337 163 -120 42 -390 101 -388 84 0 -4 53 -52 118 -107 65 -55 332 -284 594
-510 l476 -410 -35 -36 c-64 -66 -71 -66 -150 -18 -158 97 -388 187 -589 229
-131 28 -469 41 -445 18 8 -8 317 -228 685 -488 858 -606 865 -611 865 -619 0
-3 -70 -76 -156 -162 l-157 -157 -111 73 c-183 120 -395 219 -601 282 -92 27
-309 73 -349 73 -22 0 23 -43 255 -242 807 -693 1376 -1182 1388 -1194 17 -16
8 -29 -81 -105 l-57 -50 -63 39 c-319 195 -688 329 -1053 381 -457 66 -942 20
-1365 -130 -259 -92 -612 -293 -813 -463 l-77 -66 -210 182 c-166 143 -208
184 -198 194 7 6 371 321 808 699 437 378 809 701 825 717 l30 29 -45 -6
c-382 -54 -731 -198 -1022 -421 -31 -24 -59 -44 -63 -44 -9 0 -123 78 -129 88
-3 5 278 308 624 673 346 365 627 665 625 667 -6 7 -119 -28 -235 -73 -146
-57 -305 -146 -435 -245 l-102 -78 -139 120 c-76 65 -140 123 -142 127 -2 5
74 76 169 158 330 284 845 727 932 801 48 41 86 76 85 78 -2 1 -44 -4 -93 -13
-194 -32 -428 -129 -617 -255 l-95 -64 -52 25 c-28 14 -51 28 -51 31 0 11 992
1070 1002 1070 5 0 262 -176 571 -392z"/>
</g>
</svg>
