<svg version="1.0" xmlns="http://www.w3.org/2000/svg" width="933.333" height="933.333" viewBox="0 0 700 700"><path d="M321.5 1.1C221.1 9.7 131.6 59 70.2 139.8c-37.3 48.9-61.3 110-68.4 173.7-1.7 15.4-1.7 58.5 0 73 4.4 37 12.9 69.4 26.9 102 27.6 64.5 76.4 121.2 136.5 158.6 44.7 27.8 92.4 44.3 148.3 51.1 13 1.6 60 1.6 73 0 45.1-5.5 81.8-16.3 119.5-35.1 72.9-36.4 131.2-97.3 163.9-171.4 14.4-32.5 23.8-67.5 28.3-105.2 1.6-13.9 1.6-59.5 0-73-10.8-88.9-47.7-161.9-112.2-221.7-50.7-47.1-117.1-78.5-186.5-88.2-24.9-3.5-54.6-4.5-78-2.5zm78.8 166.1c30.9 21.6 58.5 40.8 61.4 42.7 2.9 2 5.2 3.9 5.3 4.2 0 .8-18.9 21.2-20.1 21.7-.4.2-3.2-1.3-6.3-3.3-8.3-5.3-24-12.9-33.7-16.3-12-4.2-39-10.1-38.8-8.4 0 .4 5.3 5.2 11.8 10.7 6.5 5.5 33.2 28.4 59.4 51l47.6 41-3.5 3.6c-6.4 6.6-7.1 6.6-15 1.8-15.8-9.7-38.8-18.7-58.9-22.9-13.1-2.8-46.9-4.1-44.5-1.8.8.8 31.7 22.8 68.5 48.8 85.8 60.6 86.5 61.1 86.5 61.9 0 .3-7 7.6-15.6 16.2l-15.7 15.7-11.1-7.3c-18.3-12-39.5-21.9-60.1-28.2-9.2-2.7-30.9-7.3-34.9-7.3-2.2 0 2.3 4.3 25.5 24.2 80.7 69.3 137.6 118.2 138.8 119.4 1.7 1.6.8 2.9-8.1 10.5l-5.7 5-6.3-3.9c-31.9-19.5-68.8-32.9-105.3-38.1-45.7-6.6-94.2-2-136.5 13-25.9 9.2-61.2 29.3-81.3 46.3L196 574l-21-18.2c-16.6-14.3-20.8-18.4-19.8-19.4.7-.6 37.1-32.1 80.8-69.9 43.7-37.8 80.9-70.1 82.5-71.7l3-2.9-4.5.6c-38.2 5.4-73.1 19.8-102.2 42.1-3.1 2.4-5.9 4.4-6.3 4.4-.9 0-12.3-7.8-12.9-8.8-.3-.5 27.8-30.8 62.4-67.3 34.6-36.5 62.7-66.5 62.5-66.7-.6-.7-11.9 2.8-23.5 7.3-14.6 5.7-30.5 14.6-43.5 24.5l-10.2 7.8-13.9-12c-7.6-6.5-14-12.3-14.2-12.7-.2-.5 7.4-7.6 16.9-15.8 33-28.4 84.5-72.7 93.2-80.1 4.8-4.1 8.6-7.6 8.5-7.8-.2-.1-4.4.4-9.3 1.3-19.4 3.2-42.8 12.9-61.7 25.5l-9.5 6.4-5.2-2.5c-2.8-1.4-5.1-2.8-5.1-3.1 0-1.1 99.2-107 100.2-107 .5 0 26.2 17.6 57.1 39.2z"/></svg>