<svg xmlns="http://www.w3.org/2000/svg" viewBox="0 0 30 30">
	<g>
		<path d="M19,6h-8.2c-2.7,0-4.9,2.2-4.9,4.9v8.3c0,2.6,2.2,4.8,4.9,4.8h8.3c2.7,0,4.9-2.2,4.9-4.9v-8.2C24,8.2,21.8,6,19,6z M14.9,19.9c-2.7,0-4.9-2.2-4.9-4.9s2.2-4.9,4.9-4.9s4.9,2.2,4.9,4.9l0,0C19.8,17.7,17.6,19.9,14.9,19.9z M20,11.2c-0.8,0-1.5-0.7-1.5-1.5s0.7-1.5,1.5-1.5c0.8,0,1.5,0.7,1.5,1.5C21.5,10.6,20.8,11.2,20,11.2L20,11.2z"/>
		<path d="M14.9,12c-1.6,0-3,1.4-3,3s1.3,3,3,3c1.6,0,3-1.3,3-3l0,0C18,13.4,16.5,12,14.9,12z"/>
	</g>
</svg>
