<svg xmlns="http://www.w3.org/2000/svg" width="30" height="30" viewBox="0 0 24 24">
    <defs>
        <linearGradient id="2r2g3sv35a" x1=".325" x2=".695" y1="1" gradientUnits="objectBoundingBox">
            <stop offset="0" stop-color="#fbda76"/>
            <stop offset=".227" stop-color="#f57e24"/>
            <stop offset=".443" stop-color="#d62976"/>
            <stop offset=".66" stop-color="#962ebf"/>
            <stop offset=".867" stop-color="#962ebf"/>
            <stop offset="1" stop-color="#4f5bd5"/>
        </linearGradient>
    </defs>
    <path fill="url(#2r2g3sv35a)" d="M0 0H24V24H0z"/>
    <path fill="#fff" stroke="#fff" stroke-width="0.3px" d="M7.787 15.274h-.152c-1.2 0-2.3-.027-3.379-.093a4.517 4.517 0 0 1-2.6-.986 4.179 4.179 0 0 1-1.4-2.267 10.046 10.046 0 0 1-.23-2.4C.01 8.972 0 8.311 0 7.639S.01 6.3.017 5.746a10.047 10.047 0 0 1 .23-2.4 4.179 4.179 0 0 1 1.4-2.267 4.517 4.517 0 0 1 2.6-.986C5.332.029 6.438 0 7.638 0s2.3.028 3.379.093a4.517 4.517 0 0 1 2.6.986 4.179 4.179 0 0 1 1.4 2.267 10.047 10.047 0 0 1 .23 2.4c.008.558.016 1.218.017 1.89 0 .672-.01 1.333-.017 1.89a10.041 10.041 0 0 1-.23 2.4 4.179 4.179 0 0 1-1.4 2.267 4.517 4.517 0 0 1-2.6.986c-1.03.065-2.089.095-3.23.095zm-.152-1.193c1.178 0 2.259-.027 3.31-.091a3.287 3.287 0 0 0 1.922-.719 3.012 3.012 0 0 0 1-1.637 9.14 9.14 0 0 0 .194-2.12c.008-.554.015-1.21.017-1.875s-.01-1.321-.017-1.875a9.141 9.141 0 0 0-.194-2.12 3.012 3.012 0 0 0-1-1.637 3.288 3.288 0 0 0-1.922-.719c-1.05-.064-2.132-.093-3.307-.091s-2.259.027-3.309.091A3.288 3.288 0 0 0 2.406 2a3.012 3.012 0 0 0-1 1.637 9.141 9.141 0 0 0-.194 2.12c-.008.554-.015 1.211-.017 1.877s.01 1.319.017 1.874a9.14 9.14 0 0 0 .194 2.12 3.012 3.012 0 0 0 1 1.637 3.288 3.288 0 0 0 1.922.719c1.051.07 2.132.1 3.307.097zm-.028-2.714a3.729 3.729 0 1 1 3.729-3.729 3.733 3.733 0 0 1-3.73 3.728zm0-6.264a2.536 2.536 0 1 0 2.536 2.536A2.539 2.539 0 0 0 7.606 5.1zm4.146-2.386a.895.895 0 1 0 .895.895.895.895 0 0 0-.895-.896zm0 0" transform="translate(4.364 4.362)"/>
</svg>
