<svg xmlns="http://www.w3.org/2000/svg" viewBox="0 0 30 30">
<g>
	<path d="M23.9,7.2C23.7,7,23.5,7,23.3,7L6.3,14.5C6,14.6,5.9,14.9,6,15.2c0,0.1,0.1,0.2,0.3,0.3l4,2l1,6c0,0.3,0.3,0.5,0.6,0.4c0.1,0,0.2-0.1,0.3-0.2l3.2-3.2l4.6,3.3c0.2,0.2,0.6,0.1,0.7-0.1c0-0.1,0.1-0.1,0.1-0.2L24,7.6C24,7.5,24,7.3,23.9,7.2z M10.8,16.4l-3-1.5l11.8-5.2L10.8,16.4z M12.4,18l-0.5,2.5l-0.5-3.2l6.5-4.9l-5.3,5.3C12.5,17.8,12.4,17.9,12.4,18z M12.7,21.8l0.6-2.8l1.3,0.9L12.7,21.8z M20,22.5L13.7,18l8.9-8.9L20,22.5z"/>
	<path d="M20.3,24.1c-0.1,0-0.3,0-0.4-0.1l-4.5-3.2l-3.1,3.1C12.3,24,12.1,24,12,24.1c-0.4,0.1-0.7-0.2-0.8-0.6l-1-6l-4-2c-0.1-0.1-0.3-0.2-0.3-0.3c-0.1-0.2-0.1-0.3,0-0.5c0.1-0.2,0.2-0.3,0.4-0.4l16.9-7.4c0.3-0.1,0.6,0,0.8,0.2l0,0c0.1,0.2,0.2,0.4,0.2,0.6L21,23.5c0,0.1-0.1,0.2-0.1,0.3C20.7,24,20.5,24.1,20.3,24.1z M15.4,20.4l4.7,3.3c0.2,0.1,0.4,0.1,0.5-0.1c0,0,0.1-0.1,0.1-0.1l3.2-15.9c0-0.1,0-0.2-0.1-0.3h0c-0.1-0.1-0.3-0.2-0.4-0.1L6.4,14.6c-0.2,0.1-0.3,0.3-0.2,0.5c0,0.1,0.1,0.1,0.2,0.2l4.1,2l1,6.1c0,0.2,0.2,0.3,0.4,0.3c0.1,0,0.2-0.1,0.2-0.1L15.4,20.4z M20.1,22.7l-6.5-4.7l9.4-9.4L20.1,22.7z M14,18l5.9,4.2l2.5-12.6L14,18z M12.5,22.2l0.7-3.5l1.6,1.2L12.5,22.2z M13.4,19.3L13,21.3l1.4-1.4L13.4,19.3z M12.1,20.5l-0.3,0l-0.5-3.3l6.5-4.9l0.2,0.2l-5.3,5.3c-0.1,0.1-0.1,0.1-0.1,0.2L12.1,20.5z M11.6,17.3l0.4,2.3l0.3-1.7c0-0.1,0.1-0.3,0.2-0.3l3.8-3.8L11.6,17.3z M10.8,16.6L10.8,16.6L7.4,15l12.1-5.3l0.2,0.3L10.8,16.6z M8.1,15l2.6,1.3l7.7-5.8L8.1,15z"/>
</g>
</svg>
