<svg xmlns="http://www.w3.org/2000/svg" viewBox="0 0 30 30">
	<path d="M25.3,8.8c0.1-0.1,0.1-0.3,0-0.4c-0.1-0.1-0.2-0.1-0.3,0c-0.5,0.2-1.1,0.3-1.6,0.4C24,8.3,24.6,7.7,25,7c0.1-0.1,0-0.3-0.1-0.4c-0.1,0-0.2,0-0.2,0c-0.7,0.3-1.4,0.6-2.1,0.7c-1.6-1.8-4.4-1.9-6.1-0.2C15.5,8,15,9.1,15,10.4c0,0.3,0,0.7,0.1,1C12,11.2,9,9.8,6.8,7.5c-0.2-0.2-0.6-0.2-0.8,0C5.9,7.6,5.8,7.6,5.8,7.7C5.7,8.1,5.6,8.6,5.6,9c0,1.4,0.7,2.8,1.8,3.6c-0.4,0-0.8-0.1-1.1-0.2c-0.3-0.1-0.7,0.1-0.8,0.4c0,0.1,0,0.2,0,0.3C6,14.8,7.3,16.1,9,16.4c-0.4,0.1-0.7,0.2-1.1,0.2l0,0c-0.3,0-0.5,0.2-0.5,0.5c0,0.1,0,0.2,0.1,0.2c0.8,1.3,2.2,2.2,3.7,2.2c-1.5,1.2-3.4,1.9-5.4,1.9l0,0c-0.1,0-0.3,0.1-0.3,0.3c0,0.1,0.1,0.2,0.1,0.2c6,3.2,13.5,0.9,16.6-5.1c1-1.8,1.5-3.8,1.4-5.9c0-0.2,0-0.4,0-0.6C24.3,9.9,24.8,9.4,25.3,8.8z"/>
</svg>
