<svg xmlns="http://www.w3.org/2000/svg" viewBox="0 0 30 30">
	<path d="M22.7,6.5c-0.5-0.5-2.6-2-7.4-2c0,0-5.6-0.3-8.3,2.2c-1.5,1.5-2,3.7-2.1,6.5S4.9,21,9.8,22.3h0l0,2.1c0,0,0,0.9,0.5,1c0.7,0.2,1.1-0.4,1.7-1.1c0.4-0.4,0.9-1,1.2-1.4c3.4,0.3,6-0.4,6.3-0.5c0.7-0.2,4.6-0.7,5.2-5.8C25.4,11.4,24.5,8,22.7,6.5z M23.3,16.3c-0.5,4.3-3.7,4.6-4.2,4.7c-0.2,0.1-2.5,0.6-5.4,0.5c0,0-2.1,2.6-2.8,3.3c-0.2,0.2-0.5,0.2-0.5-0.2c0-0.3,0-3.5,0-3.5c0,0,0,0,0,0c-4.2-1.2-3.9-5.5-3.9-7.8C6.6,10.9,7,9,8.3,7.7c2.3-2.1,7-1.8,7-1.8c4,0,5.9,1.2,6.3,1.6C23.1,8.8,23.9,11.9,23.3,16.3L23.3,16.3z M17.6,12.9c0,0.4-0.5,0.4-0.5,0c0-0.9-0.5-1.3-1.3-1.4c-0.4,0-0.3-0.6,0-0.5C16.9,11.1,17.5,11.8,17.6,12.9z M18.4,13.4c0-1.7-1.1-3.1-3.1-3.3c-0.4,0-0.3-0.6,0-0.5c2.4,0.2,3.7,1.8,3.6,3.8C19,13.8,18.4,13.8,18.4,13.4L18.4,13.4z M20.4,14c0,0.4-0.5,0.4-0.5,0c0-3.4-2.3-5.2-5-5.2c-0.4,0-0.4-0.5,0-0.5C17.9,8.3,20.3,10.3,20.4,14z M19.9,18L19.9,18c-0.4,0.8-1.3,1.7-2.1,1.4l0,0c-0.9-0.2-2.9-1.3-4.2-2.3c-0.7-0.5-1.3-1.1-1.7-1.7c-0.4-0.5-0.9-1.2-1.3-1.9c-0.9-1.6-1.1-2.3-1.1-2.3C9.2,10.2,10,9.4,10.8,9h0c0.4-0.2,0.7-0.1,1,0.2c0,0,0.5,0.6,0.7,0.9c0.2,0.3,0.5,0.7,0.6,1c0.3,0.4,0.1,0.9-0.2,1.1l-0.5,0.4c-0.3,0.2-0.2,0.6-0.2,0.6s0.7,2.8,3.5,3.5c0,0,0.4,0,0.6-0.2l0.4-0.5c0.2-0.2,0.6-0.4,1.1-0.2c0.6,0.3,1.4,0.9,1.9,1.4C20,17.3,20.1,17.6,19.9,18L19.9,18z"/>
</svg>
