<svg xmlns="http://www.w3.org/2000/svg" width="30" height="30" viewBox="0 0 26 26">
  <path d="M114.95 99.292a20.74 20.74 0 0 0-7.784 0 4.491 4.491 0 0 0-2.828 2.708 14.888 14.888 0 0 0 0 6.387 4.49 4.49 0 0 0 2.829 2.709.107.107 0 0 1 .087.1v3.1a.173.173 0 0 0 .3.119l1.475-1.514 1.387-1.423a.106.106 0 0 1 .079-.032 20.76 20.76 0 0 0 4.458-.36 4.489 4.489 0 0 0 2.829-2.709 14.871 14.871 0 0 0 0-6.387 4.488 4.488 0 0 0-2.832-2.698zm.039 9.254a2.394 2.394 0 0 1-1.029 1.133 2.473 2.473 0 0 1-.445.142c-.174-.053-.339-.088-.493-.152a11.2 11.2 0 0 1-4.219-2.82 10.948 10.948 0 0 1-1.614-2.47c-.207-.421-.382-.859-.56-1.293a1.122 1.122 0 0 1 .328-1.1 2.594 2.594 0 0 1 .869-.653.558.558 0 0 1 .7.165 9 9 0 0 1 1.08 1.511.719.719 0 0 1-.2.974c-.082.055-.156.121-.232.183a.761.761 0 0 0-.175.185.506.506 0 0 0-.034.445 4.024 4.024 0 0 0 2.26 2.5 1.15 1.15 0 0 0 .579.141c.354-.041.469-.43.717-.633a.675.675 0 0 1 .813-.036c.261.165.514.343.766.522a8.776 8.776 0 0 1 .721.549.572.572 0 0 1 .168.707zm-2.056-3.712h-.022a.255.255 0 0 1-.263-.252 2.626 2.626 0 0 0-.049-.333.937.937 0 0 0-.345-.542.9.9 0 0 0-.281-.136c-.128-.037-.261-.027-.388-.058a.238.238 0 0 1-.193-.276.25.25 0 0 1 .264-.2 1.432 1.432 0 0 1 1.467 1.427.661.661 0 0 1 0 .2.207.207 0 0 1-.174.169l-.016.001zm-.5-2.175a2.843 2.843 0 0 0-.788-.242c-.119-.02-.239-.032-.358-.048a.227.227 0 0 1-.215-.255.224.224 0 0 1 .249-.221 3.275 3.275 0 0 1 1.365.356 2.76 2.76 0 0 1 1.5 2.145c.007.044.017.087.02.131.008.108.013.217.022.36a.959.959 0 0 1-.02.145.237.237 0 0 1-.445.024.63.63 0 0 1-.025-.2 2.523 2.523 0 0 0-.319-1.266 2.357 2.357 0 0 0-.989-.929zm2.671 2.982c-.167 0-.242-.138-.253-.287-.021-.3-.036-.594-.077-.888a3.722 3.722 0 0 0-3-3.111c-.232-.042-.47-.052-.706-.077-.149-.016-.344-.025-.377-.21a.254.254 0 0 1 .251-.287h.121c2 .056.122 0 .005 0a4.232 4.232 0 0 1 4.156 3.5c.062.351.085.71.113 1.066a.25.25 0 0 1-.237.294z" fill="#675dac" transform="translate(-98.058 -93.28)"/>
  <path d="M0 0v26h26V0zm21.223 15.448l-.005.021a5.935 5.935 0 0 1-4.007 3.856h-.019a22.34 22.34 0 0 1-4.191.4c-.412 0-.824-.013-1.236-.036l-1.9 1.974a.753.753 0 0 1-1.3-.522v-1.873a5.986 5.986 0 0 1-3.786-3.8v-.021a16.406 16.406 0 0 1 0-7.068v-.021A5.938 5.938 0 0 1 8.789 4.5h.02a22.268 22.268 0 0 1 8.382 0h.019a5.935 5.935 0 0 1 4.008 3.86l.005.021a16.406 16.406 0 0 1 0 7.067z" fill="#675dac"/>
</svg>
