<svg xmlns="http://www.w3.org/2000/svg" viewBox="0 0 30 30">
	<path d="M26.2,20.4c-0.6-1-1.3-1.9-2.2-2.6c-1.9-1.7-1.6-1.5,0.6-4.5c1.4-1.8,1.9-3,1.8-3.4c-0.2-0.5-1.2-0.3-1.2-0.3l-3.4,0c-0.1,0-0.3,0-0.4,0.1c-0.1,0.1-0.2,0.2-0.3,0.4c-0.3,0.9-0.8,1.8-1.2,2.6c-1.5,2.5-2.1,2.7-2.3,2.5c-0.6-0.4-0.4-1.5-0.4-2.3c0-2.5,0.4-3.5-0.7-3.8C15.8,9,15.3,9,14.8,9c-0.9-0.1-1.9,0-2.8,0.3c-0.4,0.2-0.7,0.6-0.5,0.6c0.4,0,0.7,0.2,1,0.5c0.2,0.5,0.3,1,0.3,1.5c0,0,0.2,2.9-0.5,3.3c-0.5,0.2-1.1-0.3-2.4-2.6c-0.5-0.8-0.9-1.6-1.2-2.5C8.7,10,8.6,9.9,8.4,9.8C8.3,9.7,8.1,9.6,7.9,9.6l-3.2,0c0,0-0.5,0-0.7,0.2c-0.2,0.2,0,0.6,0,0.6s2.5,5.9,5.3,8.8c1.4,1.6,3.4,2.5,5.6,2.5h1.3c0.2,0,0.4-0.1,0.6-0.3c0.1-0.2,0.2-0.4,0.2-0.6c0,0,0-1.8,0.8-2.1c0.8-0.3,1.9,1.7,3,2.5c0.4,0.3,1,0.5,1.5,0.5l3,0C25.4,21.7,27,21.6,26.2,20.4z"/>
</svg>
