<svg xmlns="http://www.w3.org/2000/svg" viewBox="0 0 30 30">
<g>
	<path d="M4.5,25.5L6,20.3C3.1,15.3,4.7,8.9,9.7,6S21.1,4.7,24,9.7s1.3,11.4-3.7,14.3c-3.2,1.9-7.2,1.9-10.4,0.1L4.5,25.5z M10.2,22.2l0.3,0.2c4.1,2.5,9.5,1.2,12-2.9s1.2-9.5-2.9-12c-4.2-2.4-9.5-1.1-12,3c-1.7,2.8-1.7,6.4,0.1,9.2L7.9,20l-0.8,3L10.2,22.2z"/>
	<path d="M12.1,10.1h-0.7c-0.2,0-0.4,0.1-0.6,0.2c-0.5,0.4-0.8,0.9-1,1.6c-0.2,1.3,0.2,2.6,1.1,3.6c1.4,2.1,3.5,3.6,5.9,4.3c0.8,0.3,1.7,0.2,2.5-0.3c0.5-0.3,0.8-0.8,1-1.4l0.1-0.5c0-0.2,0-0.3-0.2-0.4l-2.3-1.1c-0.1-0.1-0.3,0-0.4,0.1l-1,1.3c-0.1,0.1-0.2,0.1-0.3,0.1c-1.6-0.6-3-1.7-3.8-3.3c0-0.1,0-0.2,0-0.3l0.9-1c0.1-0.1,0.1-0.2,0.1-0.4l-1-2.3C12.3,10.2,12.2,10.1,12.1,10.1z"/>
</g>
</svg>
