<svg xmlns="http://www.w3.org/2000/svg" width="30" height="30" viewBox="0 0 26 26">
  <path fill="#4aae20" d="M0 0H26V26H0z"/>
  <g transform="translate(3.908 3.898)">
      <path d="M68.494 86.525L69.768 82a9.077 9.077 0 1 1 3.391 3.322zm4.9-2.853l.278.17a7.538 7.538 0 1 0-2.427-2.372l.187.291-.733 2.6z" fill="#fff" transform="translate(-68.494 -68.321)"/>
      <path d="M149.638 152.858l-.589-.032a.713.713 0 0 0-.507.173 2.684 2.684 0 0 0-.883 1.353 4.1 4.1 0 0 0 .951 3.214 9.561 9.561 0 0 0 5.154 3.746 2.511 2.511 0 0 0 2.127-.263 1.9 1.9 0 0 0 .828-1.208l.094-.439a.305.305 0 0 0-.171-.341l-1.991-.918a.305.305 0 0 0-.37.091l-.782 1.013a.224.224 0 0 1-.251.075 6.122 6.122 0 0 1-3.313-2.835.226.226 0 0 1 .028-.252l.747-.864a.305.305 0 0 0 .05-.32l-.858-2.008a.305.305 0 0 0-.264-.185z" fill="#fff" transform="translate(-143.085 -148.004)"/>
  </g>
</svg>
