<svg xmlns="http://www.w3.org/2000/svg" width="30" height="30" viewBox="0 0 26 26"><path d="M16.892 6.012a20.74 20.74 0 00-7.784 0A4.491 4.491 0 006.28 8.72a14.888 14.888 0 000 6.387 4.49 4.49 0 002.829 2.709.107.107 0 01.087.1v3.1a.173.173 0 00.3.119l1.475-1.514 1.387-1.423a.106.106 0 01.079-.032 20.76 20.76 0 004.458-.36 4.489 4.489 0 002.829-2.709 14.871 14.871 0 000-6.387 4.488 4.488 0 00-2.832-2.698zm.039 9.254a2.394 2.394 0 01-1.029 1.133 2.473 2.473 0 01-.445.142c-.174-.053-.339-.088-.493-.152a11.2 11.2 0 01-4.219-2.82 10.948 10.948 0 01-1.614-2.47c-.207-.421-.382-.859-.56-1.293a1.122 1.122 0 01.328-1.1 2.594 2.594 0 01.869-.653.558.558 0 01.7.165 9 9 0 011.08 1.511.719.719 0 01-.2.974c-.082.055-.156.121-.232.183a.761.761 0 00-.175.185.506.506 0 00-.034.445 4.024 4.024 0 002.26 2.5 1.15 1.15 0 00.579.141c.354-.041.469-.43.717-.633a.675.675 0 01.813-.036c.261.165.514.343.766.522a8.776 8.776 0 01.721.549.572.572 0 01.168.707zm-2.056-3.712h-.022a.255.255 0 01-.263-.252 2.626 2.626 0 00-.049-.333.937.937 0 00-.345-.542.9.9 0 00-.281-.136c-.128-.037-.261-.027-.388-.058a.238.238 0 01-.193-.276.25.25 0 01.264-.2 1.432 1.432 0 011.467 1.427.661.661 0 010 .2.207.207 0 01-.174.169l-.016.001zm-.5-2.175a2.843 2.843 0 00-.788-.242c-.119-.02-.239-.032-.358-.048a.227.227 0 01-.215-.255.224.224 0 01.249-.221 3.275 3.275 0 011.365.356 2.76 2.76 0 011.5 2.145c.007.044.017.087.02.131.008.108.013.217.022.36a.959.959 0 01-.02.145.237.237 0 01-.445.024.63.63 0 01-.025-.2 2.523 2.523 0 00-.319-1.266 2.357 2.357 0 00-.989-.929zm2.671 2.982c-.167 0-.242-.138-.253-.287-.021-.3-.036-.594-.077-.888a3.722 3.722 0 00-3-3.111c-.232-.042-.47-.052-.706-.077-.149-.016-.344-.025-.377-.21a.254.254 0 01.251-.287h.121c2 .056.122 0 .005 0a4.232 4.232 0 014.156 3.5c.062.351.085.71.113 1.066a.25.25 0 01-.237.294z" fill="#675dac"/><path d="M0 0v26h26V0zm21.223 15.448l-.005.021a5.935 5.935 0 01-4.007 3.856h-.019a22.34 22.34 0 01-4.191.4c-.412 0-.824-.013-1.236-.036l-1.9 1.974a.753.753 0 01-1.3-.522v-1.873a5.986 5.986 0 01-3.786-3.8v-.021a16.406 16.406 0 010-7.068v-.021A5.938 5.938 0 018.789 4.5h.02a22.268 22.268 0 018.382 0h.019a5.935 5.935 0 014.008 3.86l.005.021a16.406 16.406 0 010 7.067z" fill="#675dac"/></svg>