<svg xmlns="http://www.w3.org/2000/svg" width="30" height="30" viewBox="0 0 26 26"><path fill="#4aae20" d="M0 0h26v26H0z"/><g fill="#fff"><path d="M3.908 22.102l1.274-4.525a9.077 9.077 0 113.391 3.322zm4.9-2.853l.278.17a7.538 7.538 0 10-2.427-2.372l.187.291-.733 2.6z"/><path d="M10.461 8.752l-.589-.032a.713.713 0 00-.507.173 2.684 2.684 0 00-.883 1.353 4.1 4.1 0 00.951 3.214 9.561 9.561 0 005.154 3.746 2.511 2.511 0 002.127-.263 1.9 1.9 0 00.828-1.208l.094-.439a.305.305 0 00-.171-.341l-1.991-.918a.305.305 0 00-.37.091l-.782 1.013a.224.224 0 01-.251.075 6.122 6.122 0 01-3.313-2.835.226.226 0 01.028-.252l.747-.864a.305.305 0 00.05-.32l-.858-2.008a.305.305 0 00-.264-.185z"/></g></svg>