<svg xmlns="http://www.w3.org/2000/svg" width="30" height="30" viewBox="0 0 24 24"><path d="M0 0h24v24H0z" fill="red"/><path fill="#fff" d="M18.988 8.565a1.789 1.789 0 00-1.259-1.259A41.8 41.8 0 0012.141 7a43.435 43.435 0 00-5.588.294 1.826 1.826 0 00-1.259 1.271A18.855 18.855 0 005 12a18.786 18.786 0 00.294 3.435 1.79 1.79 0 001.259 1.259 41.884 41.884 0 005.588.306 43.435 43.435 0 005.588-.294 1.789 1.789 0 001.259-1.259 18.856 18.856 0 00.294-3.435 17.9 17.9 0 00-.294-3.447zm0 0"/><path d="M10.718 14.142l3.718-2.141-3.718-2.141zm0 0" fill="red"/></svg>