<svg xmlns="http://www.w3.org/2000/svg" width="30" height="30" viewBox="0 0 24 24">
    <g transform="translate(5 7)">
        <path d="M0 0H24V24H0z" fill="red" transform="translate(-5 -7)"/>
        <path fill="#fff" d="M13.988 1.565A1.789 1.789 0 0 0 12.729.306 41.8 41.8 0 0 0 7.141 0a43.435 43.435 0 0 0-5.588.294A1.826 1.826 0 0 0 .294 1.565 18.855 18.855 0 0 0 0 5a18.786 18.786 0 0 0 .294 3.435 1.79 1.79 0 0 0 1.259 1.259A41.884 41.884 0 0 0 7.141 10a43.435 43.435 0 0 0 5.588-.294 1.789 1.789 0 0 0 1.259-1.259 18.856 18.856 0 0 0 .294-3.435 17.9 17.9 0 0 0-.294-3.447zm0 0"/>
        <path d="M204.969 106.767l3.718-2.141-3.718-2.141zm0 0" fill="red" transform="translate(-199.251 -99.625)"/>
    </g>
</svg>
