<svg xmlns="http://www.w3.org/2000/svg" viewBox="0 0 20 20"><path d="M19.5 1.8c-.5-.6-1.2-1-2-1h-.3V.6c0-.3-.3-.6-.6-.6s-.6.3-.6.6v1.6c0 .3.3.6.6.6s.6-.3.6-.6V2h.3c.8 0 1.4.6 1.4 1.4 0 .1 0 .3-.1.4l-1.6 5.4c-.5 1.9-2.5 3-4.4 2.4-1.2-.3-2.1-1.3-2.4-2.4L8.8 3.7C8.6 3 9 2.2 9.8 2h.6v.2c0 .3.3.6.6.6s.6-.3.6-.6V.6c0-.3-.3-.6-.6-.6s-.6.3-.6.6v.2h-.3C8.7.8 7.6 1.9 7.6 3.3c0 .2 0 .5.1.7l1.6 5.4c.3 1 .9 1.9 1.7 2.5.2.1.4.3.6.4l1.7 4v.4c0 1.1-.9 2.1-2.1 2.1-1.1 0-2.1-.9-2.1-2.1v-4c0-1.9-1.5-3.4-3.4-3.4s-3.4 1.5-3.4 3.4v1.4C.7 14.4-.3 16 0 17.6c.3 1.6 1.9 2.6 3.5 2.3 1.6-.3 2.6-1.9 2.3-3.5-.2-1.2-1.1-2-2.3-2.3v-1.4c0-1.2 1-2.2 2.2-2.2s2.2 1 2.2 2.2v4c0 1.8 1.5 3.2 3.2 3.2 1.8 0 3.2-1.5 3.2-3.2v-.4l1.7-4c.2-.1.4-.2.6-.4.8-.6 1.4-1.5 1.7-2.5L19.9 4c.2-.7.1-1.6-.4-2.2zM4.7 17c0 1-.8 1.8-1.8 1.8S1.2 18 1.2 17 2 15.2 3 15.2s1.7.8 1.7 1.8zm9.1-2.3l-.8-1.9c.5.1 1.1.1 1.6 0l-.8 1.9z"/><circle cx="3" cy="17" r="1"/></svg>