<svg xmlns="http://www.w3.org/2000/svg" width="20" height="20"><defs><style>.cls-2{fill:#52555b}</style></defs><g id="home" transform="translate(0 -27.831)"><g id="Сгруппировать_1040" transform="translate(2.41 36.074)"><g id="Сгруппировать_1039"><path id="Контур_1264" d="M75.754 211.786v9.314h-3.519v-4.03a.64.64 0 00-.64-.64H67.1a.64.64 0 00-.64.64v4.03h-3.5v-9.318h-1.279v9.957a.64.64 0 00.64.64H67.1a.64.64 0 00.64-.64v-4.03h3.22v4.03a.64.64 0 00.64.64h4.8a.64.64 0 00.64-.64v-9.957z" class="cls-2" transform="translate(-61.681 -211.786)"/></g></g><g id="Сгруппировать_1042" transform="translate(0 28.931)"><g id="Сгруппировать_1041"><path id="Контур_1265" d="M19.8 37.782L10.523 29.1a.64.64 0 00-.87 0L.207 37.778a.64.64 0 00.866.942l9.009-8.277 8.842 8.273a.64.64 0 00.874-.934z" class="cls-2" transform="translate(0 -28.931)"/></g></g></g></svg>