<svg xmlns="http://www.w3.org/2000/svg" width="24" height="24"><defs><linearGradient id="a" x1=".325" x2=".695" y1="1" gradientUnits="objectBoundingBox"><stop offset="0" stop-color="#fbda76"/><stop offset=".227" stop-color="#f57e24"/><stop offset=".443" stop-color="#d62976"/><stop offset=".66" stop-color="#962ebf"/><stop offset=".867" stop-color="#962ebf"/><stop offset="1" stop-color="#4f5bd5"/></linearGradient></defs><path fill="url(#a)" d="M0 0h24v24H0z"/><path fill="#fff" stroke="#fff" stroke-width=".3" d="M12.151 19.636h-.152c-1.2 0-2.3-.027-3.379-.093a4.517 4.517 0 01-2.6-.986 4.179 4.179 0 01-1.4-2.267 10.046 10.046 0 01-.23-2.4c-.016-.556-.026-1.217-.026-1.889s.01-1.339.017-1.893a10.047 10.047 0 01.23-2.4 4.179 4.179 0 011.4-2.267 4.517 4.517 0 012.6-.986c1.085-.064 2.191-.093 3.391-.093s2.3.028 3.379.093a4.517 4.517 0 012.6.986 4.179 4.179 0 011.4 2.267 10.047 10.047 0 01.23 2.4c.008.558.016 1.218.017 1.89 0 .672-.01 1.333-.017 1.89a10.041 10.041 0 01-.23 2.4 4.179 4.179 0 01-1.4 2.267 4.517 4.517 0 01-2.6.986 50.99 50.99 0 01-3.23.095zm-.152-1.193c1.178 0 2.259-.027 3.31-.091a3.287 3.287 0 001.922-.719 3.012 3.012 0 001-1.637 9.14 9.14 0 00.194-2.12c.008-.554.015-1.21.017-1.875s-.01-1.321-.017-1.875a9.141 9.141 0 00-.194-2.12 3.012 3.012 0 00-1-1.637 3.288 3.288 0 00-1.922-.719c-1.05-.064-2.132-.093-3.307-.091s-2.259.027-3.309.091a3.288 3.288 0 00-1.923.712 3.012 3.012 0 00-1 1.637 9.141 9.141 0 00-.194 2.12c-.008.554-.015 1.211-.017 1.877s.01 1.319.017 1.874a9.14 9.14 0 00.194 2.12 3.012 3.012 0 001 1.637 3.288 3.288 0 001.922.719c1.051.07 2.132.1 3.307.097zm-.028-2.714A3.729 3.729 0 1115.7 12a3.733 3.733 0 01-3.73 3.728zm0-6.264a2.536 2.536 0 102.536 2.536 2.539 2.539 0 00-2.537-2.539zm4.146-2.386a.895.895 0 10.895.895.895.895 0 00-.895-.896zm0 0"/></svg>