<svg xmlns="http://www.w3.org/2000/svg" width="40" height="45"><defs><style>.cls-2{fill:#18191c}</style></defs><g id="kitchen" transform="translate(-1443 -5273)"><path id="Прямоугольник_1145" fill="#d4bb96" d="M0 0h40v20a20 20 0 01-20 20H0V0z" opacity=".4" transform="translate(1443 5278)"/><g id="Сгруппировать_871" transform="translate(1160.394 4848.59)"><path id="Контур_1202" d="M309.889 436.713h-24.562a2.725 2.725 0 00-2.721 2.723 4.489 4.489 0 003.493 4.358v6.229a4.475 4.475 0 004.466 4.47h14.086a4.477 4.477 0 004.465-4.464v-6.235a4.489 4.489 0 003.49-4.358 2.726 2.726 0 00-2.717-2.723zm.776 2.717a2.531 2.531 0 01-1.549 2.328v-3.1h.774a.778.778 0 01.775.772zm-3.494-.769v11.362a2.528 2.528 0 01-2.52 2.521h-14.086a2.528 2.528 0 01-2.52-2.521v-11.362zm-21.07 0v3.1a2.53 2.53 0 01-1.548-2.323.775.775 0 01.774-.774z" class="cls-2" transform="translate(0 -.081)"/><path id="Контур_1203" d="M287.156 435.087a.954.954 0 00.4-.088l19.03-8.731a.973.973 0 00-.067-1.8.97.97 0 00-.745.027l-6.245 2.865a3.592 3.592 0 00-6.617 2.8c.029.069.059.136.09.2l-6.257 2.871a.971.971 0 00.407 1.855zm7.635-6.715a1.633 1.633 0 01.876-.906 1.646 1.646 0 012.1.714l-2.985 1.37a1.634 1.634 0 01.01-1.178z" class="cls-2" transform="translate(-.024)"/><path id="Контур_1204" d="M305.6 430.174a1.312 1.312 0 01.556 0 .973.973 0 00.009-1.945 3.145 3.145 0 00-3.453 2.789 3.058 3.058 0 000 .674 1.242 1.242 0 01-.949 1.478 1.318 1.318 0 01-.55 0 .972.972 0 00-.012 1.944 3.135 3.135 0 003.452-2.788 3.086 3.086 0 000-.671 1.24 1.24 0 01.946-1.48z" class="cls-2" transform="translate(-.117 -.025)"/><path id="Контур_1205" d="M306.494 433.17a.972.972 0 100 1.944 2.964 2.964 0 00.324.017 3.137 3.137 0 003.114-2.806 3.287 3.287 0 000-.671 1.24 1.24 0 01.946-1.48 1.312 1.312 0 01.556 0 .972.972 0 00.011-1.944 3.138 3.138 0 00-3.452 2.789 3.058 3.058 0 000 .674 1.243 1.243 0 01-.948 1.478 1.338 1.338 0 01-.551-.001z" class="cls-2" transform="translate(-.152 -.025)"/></g></g></svg>