<svg xmlns="http://www.w3.org/2000/svg" width="1531.344" height="169.202"><path fill="#d4bb96" d="M962.334 169.2c-34.528 0-74.4-18.386-131.7-73.254-45.248-43.33-79.628-65.195-108.2-68.806-26.225-3.32-46.567 8.556-70.12 22.3C624.347 65.77 589.678 86 533.61 86c-1.331 0-2.664-.011-4.019-.034-59.124-1.007-94.984 9.024-126.637 17.872-25.016 6.993-46.612 13.03-74.261 12.083-30.125-1.035-64.706-10.594-108.827-30.083C140.115 50.612 85.414 66.154 53.569 85.4 19.021 106.271 3.3 135.379 2.65 136.607L0 135.2l1.324.7L0 135.2c.668-1.259 16.766-31.073 52.017-52.373a146.9 146.9 0 0168.629-20.907c30.965-1.713 64.751 5.413 100.431 21.172 94.934 41.933 131.064 31.833 181.069 17.854 31.851-8.9 67.951-19 127.5-17.981 57.6.983 91.376-18.726 121.168-36.113 47.938-27.977 82.574-48.192 181.9 46.929 48.707 46.644 87.7 69.559 122.726 72.114 32.223 2.352 59.455-12.163 91-28.968 31.831-16.957 67.907-36.177 118.274-43.547 70.294-10.286 109.041-35.637 143.227-58 38.477-25.18 68.869-45.063 128.207-30.371 38.294 9.482 92.851 58.614 95.2 60.741l-.281 3.8c-.568-.516-58.078-52.326-95.635-61.626-58.066-14.376-87.978 5.192-125.846 29.967-32.74 21.42-73.487 48.079-144.436 58.461-49.851 7.294-85.683 26.384-117.3 43.226-29.718 15.832-55.613 29.625-85.515 29.627"/></svg>