<svg width="160" height="50" xmlns="http://www.w3.org/2000/svg"><path fill="#538070" d="M18.5 16.7L25.7 9l8.9 6.2-1.5 1.6c-1.7-1.2-3.7-1.9-5.7-2.1l8.6 7.4-.8.7c-2.3-1.5-4.9-2.3-7.6-2.2h-.5l11.3 8-2.2 2.4c-2.3-1.7-5-2.8-7.8-3.1l12.1 10.4-1.1 1c-3.3-2.1-7.1-3.3-11-3.2-4.8-.1-9.5 1.7-13.1 4.9l-3-2.6 12-10.4c-3 .3-5.8 1.5-8.1 3.4l-1-.7 9.1-9.6c-2.1.5-4 1.5-5.6 2.9l-2.1-1.8 8.6-7.4c-2.1.2-4.1 1.1-5.8 2.4l-.9-.5zM26.2 0c13.8 0 25 11.2 25 25S40 50 26.2 50s-25-11.2-25-25c.1-13.8 11.2-25 25-25zm56 10.9c-.7-.7-1.5-1.2-2.4-1.6-.8-.4-1.8-.6-2.7-.6-2.3-.1-4.5.9-5.8 2.7-1.4 1.9-2.1 4.2-2 6.5 0 .6.1 1.2.1 1.8l.3 1.8c.3 1 .7 2 1.4 2.8.7.8 1.5 1.5 2.5 2s2.1.7 3.2.7c1 0 2-.2 2.9-.5 1-.4 1.9-.9 2.7-1.5.2.7.3 1.4.6 2.1-.9.6-1.9 1.1-3 1.3-1.2.3-2.4.4-3.6.4-2.9.1-5.7-.9-7.8-3-2-2.2-3-5.1-2.8-8 0-1.5.3-3.1.9-4.5.6-1.4 1.4-2.6 2.5-3.6 1.1-.9 2.3-1.6 3.6-2.1 1.6-.4 3-.6 4.5-.6 1.1 0 2.2.1 3.2.4 1.1.2 2.1.6 3.1 1-.4 1-.7 1.9-.9 2.9l-.1-.1c-.2-.1-.3-.2-.4-.3zm52.7 9.7c0-2.4.9-5.6 3.8-5.6 3.2 0 3.9 3.8 3.9 6.4 0 1.9-.7 4.8-2.9 5.3-.4.1-.8.1-1.2.1-3 0-3.7-3.8-3.6-6.2zm-3.1-7c1.4-.2 2.7.8 3 2.1 1-1.6 2.8-2.5 4.7-2.4 4 0 6.1 3.5 6.1 7.3 0 1-.1 2.1-.3 3.1-.7 2.9-3.3 4.9-6.2 4.8-1.7.1-3.3-.7-4.3-2.1V34h-3V13.6zm-5.6 12.8c-1 1.4-2.7 2.2-4.5 2.1-2.1 0-4.4-1.2-4.8-3.5-.1-.9-.2-1.7-.2-2.6v-8.9h3.1l-.3 8.2c0 1.6 0 3.4 1.6 4.3 1.6.9 3.6.3 4.5-1.3.2-.4.3-.8.4-1.2.1-.5.2-1 .2-1.6v-8.4h2.9l-.1 14.9c-2.3 0-2.8-1.5-2.8-2zm-31.2 0c-1 1.4-2.7 2.2-4.5 2.1-2.1 0-4.4-1.2-4.8-3.5-.1-.9-.2-1.7-.2-2.6v-8.9h3.1l-.3 8.2c0 1.6 0 3.4 1.6 4.3 1.6.9 3.6.3 4.5-1.3.2-.4.3-.8.4-1.2.1-.5.2-1 .2-1.6v-8.4h2.9l-.2 14.8c-2.2.1-2.7-1.4-2.7-1.9zm12.4.7c-3.2 0-4.2-3.6-4.2-6.3 0-2.6 1-5.9 4.1-5.9 3.7 0 4.4 3.4 4.4 6.4 0 2.9-1 5.8-4.3 5.8zm-5.1-11.4c1.4-1.5 3.4-2.4 5.5-2.4 4.4 0 7.1 3.3 7.1 7.6.1 2-.6 3.9-1.9 5.3-1.5 1.6-3.5 2.5-5.7 2.4-1.9.1-3.8-.7-5.2-2-1.4-1.5-2.1-3.4-2-5.5 0-3.2.4-6.9 2.2-9.7 1.2-1.8 3-3.2 5.1-4 1.1-.5 2.2-.9 3.3-1.3.7-.2 1.4-.5 2.1-.8l.3-.1c.5 1.3-.3 3.4-1.7 3.6-2.6.9-5.7 1.6-7.5 3.8-.9 1.1-1.4 2.1-1.6 3.1zm48.3 5.7h1.9c1.7 0 3.2.8 3.2 2.7s-1.2 2.7-3 2.7h-2.2l.1-5.4zM74.8 41.3l.7.2c-.1.5-.4 1-.8 1.3-.4.3-.9.5-1.4.5-.5 0-1-.1-1.4-.4-.4-.2-.7-.6-.8-1-.2-.5-.3-1-.3-1.4 0-.5.1-1 .3-1.5.2-.4.5-.7.9-1 .4-.2.9-.3 1.3-.3.5 0 1 .1 1.4.4.4.3.7.7.8 1.2l-.7.2c-.1-.3-.3-.6-.6-.9-.3-.2-.6-.3-.9-.3-.4 0-.7.1-1.1.3-.3.2-.5.5-.6.8-.1.3-.2.7-.2 1 0 .4.1.8.2 1.2.1.3.3.6.6.8.3.2.6.3.9.3.4 0 .7-.1 1-.3.5-.3.7-.7.7-1.1zm7.1-.3h1.9l-.6-1.5c-.2-.5-.3-.8-.4-1.1-.1.4-.2.7-.3 1l-.6 1.6zm-1.6 2.2l2.1-5.4h.8l2.2 5.4h-.8l-.6-1.6h-2.3l-.6 1.6h-.8zm10.4 0v-5.4h.7V40h2.8v-2.2h.8v5.4h-.7v-2.5h-2.8v2.5h-.8zm11.2-2.2h1.9l-.6-1.5c-.2-.5-.3-.8-.4-1.1-.1.4-.2.7-.3 1l-.6 1.6zm-1.6 2.2l2.1-5.4h.8l2.2 5.4h-.8l-.6-1.6h-2.3l-.6 1.6h-.8zm11.2 0v-4.8h-1.8v-.6h4.3v.6h-1.8v4.8h-.7zm8.1-2.6c0 .6.2 1.1.5 1.5.7.7 1.9.7 2.7 0 .4-.4.6-1 .5-1.6 0-.4-.1-.8-.2-1.2-.1-.3-.4-.6-.7-.8-.3-.2-.6-.3-1-.3-.5 0-1 .2-1.3.5-.4.6-.6 1.2-.5 1.9zm-.7 0c0-.8.2-1.5.7-2.1.5-.5 1.2-.8 1.9-.8.5 0 1 .1 1.4.4.4.2.7.6.9 1 .2.5.3.9.3 1.4 0 .5-.1 1-.3 1.5-.2.4-.5.8-1 1-.4.2-.9.3-1.3.3-.5 0-1-.1-1.4-.4-.4-.2-.7-.6-.9-1-.2-.4-.3-.9-.3-1.3zm11.5-.2h1.4c.4 0 .7-.1 1-.3.2-.2.3-.5.3-.7 0-.2-.1-.4-.2-.6-.1-.2-.3-.3-.5-.3s-.4-.1-.7 0h-1.4l.1 1.9zm-.7 2.8v-5.4h2.1c.3 0 .6 0 .8.1.2 0 .5.1.7.3.2.1.3.3.4.5.3.6.2 1.4-.3 1.9-.4.4-1 .5-1.6.5h-1.4v2.2l-.7-.1zm9.8-5.4h.7v4.3l2.9-4.3h.7v5.4h-.7v-4.3l-2.9 4.3h-.7v-5.4zm12.9-1.3h.5c0 .3-.1.5-.3.7-.2.2-.5.3-.8.3-.3 0-.5-.1-.8-.2-.2-.2-.3-.4-.3-.7h.5c0 .1.1.3.2.4.1.1.3.1.4.1.2 0 .3 0 .5-.1 0-.2.1-.4.1-.5zm-2.8 1.3h.7v4.3l2.9-4.3h.7v5.4h-.7v-4.3l-2.9 4.3h-.7v-5.4zm1-18h2.9c2.7 0 5.3 1.1 5.3 4.2 0 3-2.8 4.3-5.5 4.3h-5.6V13.6h2.9v6.2z"/><path d="M18.5 16.8l7.2-7.7 8.9 6.2-1.5 1.7c-1.7-1.2-3.7-1.9-5.7-2.1l8.6 7.4-.8.7c-2.3-1.5-4.9-2.3-7.6-2.2h-.5l11.3 8-2.2 2.4c-2.3-1.7-5-2.8-7.8-3.1l12.1 10.4-1.1 1c-3.3-2.1-7.1-3.3-11-3.2-4.8-.1-9.5 1.7-13.1 4.9l-3-2.6 12-10.4c-3 .3-5.8 1.5-8.1 3.4l-1-.7 9.1-9.6c-2.1.5-4 1.5-5.6 2.9l-2.1-1.8 8.6-7.4c-2.1.2-4.1 1.1-5.8 2.4l-.9-.6zM107.4 27c-3.1 0-4.2-3.6-4.2-6.2 0-2.5 1-5.8 4.1-5.8 3.6 0 4.3 3.3 4.3 6.3 0 2.8-1 5.7-4.2 5.7zm31.3 0c-2.9 0-3.9-3.6-3.9-6.2 0-2.5 1-5.8 3.8-5.8 3.4 0 4 3.3 4 6.3 0 2.8-.9 5.7-3.9 5.7zm11.7-5.7h1.9c1.7 0 3.2.8 3.2 2.7s-1.2 2.7-3 2.7h-2.2l.1-5.4z" fill="#fff"/></svg>