<svg xmlns="http://www.w3.org/2000/svg" width="40" height="45"><path fill="#d4bb96" d="M0 5h40v21a19 19 0 01-19 19H0V5z" opacity=".4"/><path fill="#212126" d="M30 21.176h-2.766a2.519 2.519 0 00.118-.765v-9.058a2.532 2.532 0 00-2.529-2.529h-2.764v-3.53h-8.824v3.53h-2.764a2.532 2.532 0 00-2.529 2.529v9.059a2.519 2.519 0 00.118.765H5.294V0H0v1.765h3.529v24.706h1.917a2.647 2.647 0 104.991 0h12.656a2.647 2.647 0 104.991 0H30zm-4.412-3.529H9.706v-3.529h15.882zM15 7.059h5.294v1.765H15zm-4.529 3.529h14.353a.766.766 0 01.765.765v1H9.706v-1a.766.766 0 01.765-.765zm-.765 9.824v-1h15.882v1a.766.766 0 01-.765.765H10.471a.766.766 0 01-.765-.765zm-.882 6.941a.882.882 0 11-.882-.882.883.883 0 01.882.882zm17.647 0a.882.882 0 11-.882-.882.883.883 0 01.882.882zm1.765-2.647H5.294v-1.765h22.941z"/></svg>