<svg xmlns="http://www.w3.org/2000/svg" width="80" height="50"><defs><style>.cls-2{fill:#212126}</style></defs><g id="onsen" transform="translate(1 -88.093)"><path id="Контур_1217" d="M30.164 272.758c1.123.691 3.872 2.028 9.665 3.217 13.388 2.747 33.581 2.747 46.97 0 5.793-1.189 8.542-2.526 9.663-3.215a1.173 1.173 0 000-2c-2.82-1.736-7.906-2.91-11.183-3.511a1.117 1.117 0 10-.4 2.2 45.618 45.618 0 018.57 2.314c-13.246 5.434-47.247 5.342-60.267 0a40.19 40.19 0 017.1-2.028c10.854-2.227 26.708-2.658 39.45-1.071a1.117 1.117 0 00.268-2.22c-12.96-1.614-29.1-1.172-40.175 1.1-5.793 1.189-8.542 2.525-9.666 3.217a1.173 1.173 0 000 2z" class="cls-2" transform="translate(-24.197 -150.974)"/><path id="Контур_1218" d="M11.693 182.4c14.628 3.516 38.212 3.518 52.848 0 7.759-1.865 11.693-4.347 11.693-7.375v-7.3c0-1.8-1.386-3.4-4.136-4.8l-1.3-5.115a5.419 5.419 0 00-.924-1.93l-.228-7.97a3 3 0 00-2.466-2.859l-2.976-.529a2.971 2.971 0 00-2.747.945l-1.284 1.433a1.477 1.477 0 01-1.1.489h-3.255a4.113 4.113 0 00-3.808 2.541l-3.389 8.149a154.231 154.231 0 00-19.155-.118l-.352-1.283a5.78 5.78 0 00-5.3-4.259 17.962 17.962 0 00-.381-2.573 1.117 1.117 0 10-2.163.557 16.546 16.546 0 01.329 2.305l-1.322.307a4.925 4.925 0 00-3.476 3l-1.39 3.552a48.652 48.652 0 00-10.45 2.966l3.518-10.473a4.04 4.04 0 01.88-1.471l3.615-3.845a4.027 4.027 0 012.923-1.264h1.252a3.014 3.014 0 012.092.839 1.117 1.117 0 101.543-1.615 5.238 5.238 0 00-3.635-1.457h-1.257a6.269 6.269 0 00-4.55 1.967l-3.615 3.845a6.292 6.292 0 00-1.37 2.289l-4.332 12.896A4.489 4.489 0 000 167.728v7.3c0 3.029 3.934 5.51 11.693 7.375zM67.9 157q.031.039.066.074a3.187 3.187 0 01.668 1.291l.878 3.456a54.218 54.218 0 00-8.069-2.134l.951-2.3a2.312 2.312 0 012.143-1.432h1A3.19 3.19 0 0167.9 157zm-13.828-6.213a1.886 1.886 0 011.746-1.165h3.259a3.713 3.713 0 002.758-1.229l1.283-1.427a.752.752 0 01.7-.239l2.976.529a.76.76 0 01.624.724l.176 6.146a5.423 5.423 0 00-2.051-.4h-1a4.539 4.539 0 00-4.207 2.812l-1.138 2.749c-2.568-.424-5.33-.766-8.229-1.022zm-35.2 6.046a2.693 2.693 0 011.9-1.643l1.942-.45a3.554 3.554 0 014.241 2.528l.23.84c-3.248.238-6.344.583-9.216 1.027zm-6.661 5.694c14.145-3.4 37.378-3.468 51.8 0 7.367 1.771 9.981 3.91 9.981 5.2s-2.614 3.433-9.981 5.2c-15.25 3.666-40.2 3.358-53.894-.547a1.117 1.117 0 00-.612 2.148c14.046 4 39.386 4.331 55.029.571q6.565-1.578 9.459-3.732v3.653c0 1.294-2.614 3.433-9.981 5.2-14.287 3.435-37.512 3.436-51.8 0-7.367-1.771-9.981-3.91-9.981-5.2v-3.666a13.387 13.387 0 002.008 1.213 1.117 1.117 0 101-2c-1.912-.958-3.008-1.995-3.008-2.846 0-1.294 2.614-3.433 9.981-5.2z" class="cls-2" transform="translate(1 -46.943)"/><path id="Контур_1219" d="M280.074 126.077a1.117 1.117 0 001.579 1.579 5.86 5.86 0 000-8.278 3.618 3.618 0 010-5.119 1.117 1.117 0 10-1.579-1.579 5.85 5.85 0 000 8.278 3.624 3.624 0 010 5.119z" class="cls-2" transform="translate(-235.913 -20.647)"/><path id="Контур_1220" d="M238.778 105.43a1.117 1.117 0 001.579 1.579 7.127 7.127 0 000-10.084 4.9 4.9 0 010-6.925 1.117 1.117 0 00-1.579-1.579 7.138 7.138 0 000 10.084 4.894 4.894 0 010 6.925z" class="cls-2" transform="translate(-200.451)"/><path id="Контур_1221" d="M201.7 126.077a1.117 1.117 0 001.579 1.579 5.86 5.86 0 000-8.278 3.618 3.618 0 010-5.119 1.117 1.117 0 10-1.579-1.579 5.85 5.85 0 000 8.278 3.624 3.624 0 010 5.119z" class="cls-2" transform="translate(-169.211 -20.648)"/><path id="Контур_1222" d="M75.8 182.146l-.967.765a3.211 3.211 0 01-1.538.66l-3.251.463a1.117 1.117 0 10.315 2.211l3.251-.463a5.448 5.448 0 002.609-1.12l.967-.765a1.117 1.117 0 10-1.386-1.751z" class="cls-2" transform="translate(-57.801 -79.844)"/><path id="Контур_1223" d="M164.7 298.525a1.117 1.117 0 000 2.233h6.81a1.117 1.117 0 000-2.233z" class="cls-2" transform="translate(-138.223 -179.1)"/><path id="Контур_1224" d="M131.043 298.525a1.117 1.117 0 000 2.233h1.288a1.117 1.117 0 000-2.233z" class="cls-2" transform="translate(-109.581 -179.1)"/><path id="Контур_1225" d="M340.27 304.89a1.117 1.117 0 100 2.233h1.569a1.117 1.117 0 000-2.233z" class="cls-2" transform="translate(-287.656 -184.517)"/><path id="Контур_1226" d="M249.617 304.89a1.117 1.117 0 100 2.233h9.775a1.117 1.117 0 000-2.233z" class="cls-2" transform="translate(-210.5 -184.517)"/></g></svg>