<svg xmlns="http://www.w3.org/2000/svg" width="80" height="55"><path d="M53.86 19.318a9.067 9.067 0 00-5.76 2.046l-13.707-9.757v-.47a6.147 6.147 0 10-6.147 6.136h.369l3.463 6.893a4.087 4.087 0 000 6.668l-3.668 5.3a.98.98 0 000 .286 7.368 7.368 0 00-3.238-.736 7.159 7.159 0 107.172 7.159 8.862 8.862 0 00-.123-1.289l15.84-5.87a9.191 9.191 0 105.8-16.364zm-29.713-8.182a4.1 4.1 0 114.1 4.091 4.095 4.095 0 01-4.1-4.091zm6.537 5.625a6.142 6.142 0 003.116-3.027l12.889 9.143a9.36 9.36 0 00-1.865 4.377l-6.783-1.7a4.1 4.1 0 00-3.648-2.148h-.369zm1.66 10.739a2.049 2.049 0 112.049 2.045 2.047 2.047 0 01-2.049-2.045zm-7.172 20.455a5.114 5.114 0 115.123-5.114 5.118 5.118 0 01-5.123 5.114zm4.713-10.473a1.188 1.188 0 00.246-.2l3.811-5.686h.451a4.1 4.1 0 004.1-3.8l6.147 1.555a9.174 9.174 0 001.783 4.684l-14.959 5.6a7.364 7.364 0 00-1.578-2.148zm23.975-1.8a7.159 7.159 0 117.172-7.159 7.166 7.166 0 01-7.172 7.159z" fill="#212126"/></svg>